<?xml version="1.0" encoding="UTF-8"?>
<!DOCTYPE svg PUBLIC "-//W3C//DTD SVG 1.1//EN" "http://www.w3.org/Graphics/SVG/1.1/DTD/svg11.dtd">
<svg width="275mm" height="208mm" viewBox="0 0 27500 20800">
 <path fill="rgb(255,255,255)" stroke="none" d="M 13745,20717 L 3,20717 3,-54 27486,-54 27486,20717 13745,20717 Z"/>
 <path fill="none" stroke="rgb(179,179,179)" stroke-linejoin="round" d="M 13431,19232 L 2178,19232 2178,2793 24683,2793 24683,19232 13431,19232 Z"/>
 <path fill="none" stroke="rgb(179,179,179)" stroke-linejoin="round" d="M 24683,19231 L 2178,19231"/>
 <path fill="none" stroke="rgb(179,179,179)" stroke-linejoin="round" d="M 24683,17404 L 2178,17404"/>
 <path fill="none" stroke="rgb(179,179,179)" stroke-linejoin="round" d="M 24683,15577 L 2178,15577"/>
 <path fill="none" stroke="rgb(179,179,179)" stroke-linejoin="round" d="M 24683,13751 L 2178,13751"/>
 <path fill="none" stroke="rgb(179,179,179)" stroke-linejoin="round" d="M 24683,11924 L 2178,11924"/>
 <path fill="none" stroke="rgb(179,179,179)" stroke-linejoin="round" d="M 24683,10098 L 2178,10098"/>
 <path fill="none" stroke="rgb(179,179,179)" stroke-linejoin="round" d="M 24683,8271 L 2178,8271"/>
 <path fill="none" stroke="rgb(179,179,179)" stroke-linejoin="round" d="M 24683,6444 L 2178,6444"/>
 <path fill="none" stroke="rgb(179,179,179)" stroke-linejoin="round" d="M 24683,4618 L 2178,4618"/>
 <path fill="none" stroke="rgb(179,179,179)" stroke-linejoin="round" d="M 24683,2792 L 2178,2792"/>
 <path fill="none" stroke="rgb(179,179,179)" stroke-linejoin="round" d="M 2178,19381 L 2178,19231"/>
 <path fill="none" stroke="rgb(179,179,179)" stroke-linejoin="round" d="M 2178,19381 L 2178,19231"/>
 <path fill="none" stroke="rgb(179,179,179)" stroke-linejoin="round" d="M 4428,19381 L 4428,19231"/>
 <path fill="none" stroke="rgb(179,179,179)" stroke-linejoin="round" d="M 4428,19381 L 4428,19231"/>
 <path fill="none" stroke="rgb(179,179,179)" stroke-linejoin="round" d="M 6679,19381 L 6679,19231"/>
 <path fill="none" stroke="rgb(179,179,179)" stroke-linejoin="round" d="M 6679,19381 L 6679,19231"/>
 <path fill="none" stroke="rgb(179,179,179)" stroke-linejoin="round" d="M 8929,19381 L 8929,19231"/>
 <path fill="none" stroke="rgb(179,179,179)" stroke-linejoin="round" d="M 8929,19381 L 8929,19231"/>
 <path fill="none" stroke="rgb(179,179,179)" stroke-linejoin="round" d="M 11180,19381 L 11180,19231"/>
 <path fill="none" stroke="rgb(179,179,179)" stroke-linejoin="round" d="M 11180,19381 L 11180,19231"/>
 <path fill="none" stroke="rgb(179,179,179)" stroke-linejoin="round" d="M 13431,19381 L 13431,19231"/>
 <path fill="none" stroke="rgb(179,179,179)" stroke-linejoin="round" d="M 13431,19381 L 13431,19231"/>
 <path fill="none" stroke="rgb(179,179,179)" stroke-linejoin="round" d="M 15680,19381 L 15680,19231"/>
 <path fill="none" stroke="rgb(179,179,179)" stroke-linejoin="round" d="M 15680,19381 L 15680,19231"/>
 <path fill="none" stroke="rgb(179,179,179)" stroke-linejoin="round" d="M 17931,19381 L 17931,19231"/>
 <path fill="none" stroke="rgb(179,179,179)" stroke-linejoin="round" d="M 17931,19381 L 17931,19231"/>
 <path fill="none" stroke="rgb(179,179,179)" stroke-linejoin="round" d="M 20181,19381 L 20181,19231"/>
 <path fill="none" stroke="rgb(179,179,179)" stroke-linejoin="round" d="M 20181,19381 L 20181,19231"/>
 <path fill="none" stroke="rgb(179,179,179)" stroke-linejoin="round" d="M 22432,19381 L 22432,19231"/>
 <path fill="none" stroke="rgb(179,179,179)" stroke-linejoin="round" d="M 22432,19381 L 22432,19231"/>
 <path fill="none" stroke="rgb(179,179,179)" stroke-linejoin="round" d="M 24683,19381 L 24683,19231"/>
 <path fill="none" stroke="rgb(179,179,179)" stroke-linejoin="round" d="M 24683,19381 L 24683,19231"/>
 <path fill="none" stroke="rgb(179,179,179)" stroke-linejoin="round" d="M 2178,19231 L 24683,19231"/>
 <path fill="none" stroke="rgb(179,179,179)" stroke-linejoin="round" d="M 2028,19231 L 2178,19231"/>
 <path fill="none" stroke="rgb(179,179,179)" stroke-linejoin="round" d="M 2028,19231 L 2178,19231"/>
 <path fill="none" stroke="rgb(179,179,179)" stroke-linejoin="round" d="M 2028,17404 L 2178,17404"/>
 <path fill="none" stroke="rgb(179,179,179)" stroke-linejoin="round" d="M 2028,17404 L 2178,17404"/>
 <path fill="none" stroke="rgb(179,179,179)" stroke-linejoin="round" d="M 2028,15577 L 2178,15577"/>
 <path fill="none" stroke="rgb(179,179,179)" stroke-linejoin="round" d="M 2028,15577 L 2178,15577"/>
 <path fill="none" stroke="rgb(179,179,179)" stroke-linejoin="round" d="M 2028,13751 L 2178,13751"/>
 <path fill="none" stroke="rgb(179,179,179)" stroke-linejoin="round" d="M 2028,13751 L 2178,13751"/>
 <path fill="none" stroke="rgb(179,179,179)" stroke-linejoin="round" d="M 2028,11924 L 2178,11924"/>
 <path fill="none" stroke="rgb(179,179,179)" stroke-linejoin="round" d="M 2028,11924 L 2178,11924"/>
 <path fill="none" stroke="rgb(179,179,179)" stroke-linejoin="round" d="M 2028,10098 L 2178,10098"/>
 <path fill="none" stroke="rgb(179,179,179)" stroke-linejoin="round" d="M 2028,10098 L 2178,10098"/>
 <path fill="none" stroke="rgb(179,179,179)" stroke-linejoin="round" d="M 2028,8271 L 2178,8271"/>
 <path fill="none" stroke="rgb(179,179,179)" stroke-linejoin="round" d="M 2028,8271 L 2178,8271"/>
 <path fill="none" stroke="rgb(179,179,179)" stroke-linejoin="round" d="M 2028,6444 L 2178,6444"/>
 <path fill="none" stroke="rgb(179,179,179)" stroke-linejoin="round" d="M 2028,6444 L 2178,6444"/>
 <path fill="none" stroke="rgb(179,179,179)" stroke-linejoin="round" d="M 2028,4618 L 2178,4618"/>
 <path fill="none" stroke="rgb(179,179,179)" stroke-linejoin="round" d="M 2028,4618 L 2178,4618"/>
 <path fill="none" stroke="rgb(179,179,179)" stroke-linejoin="round" d="M 2028,2792 L 2178,2792"/>
 <path fill="none" stroke="rgb(179,179,179)" stroke-linejoin="round" d="M 2028,2792 L 2178,2792"/>
 <path fill="none" stroke="rgb(179,179,179)" stroke-linejoin="round" d="M 2178,19231 L 2178,2792"/>
 <path fill="none" stroke="rgb(179,179,179)" stroke-linejoin="round" d="M 24833,19231 L 24683,19231"/>
 <path fill="none" stroke="rgb(179,179,179)" stroke-linejoin="round" d="M 24833,19231 L 24683,19231"/>
 <path fill="none" stroke="rgb(179,179,179)" stroke-linejoin="round" d="M 24833,17175 L 24683,17175"/>
 <path fill="none" stroke="rgb(179,179,179)" stroke-linejoin="round" d="M 24833,17175 L 24683,17175"/>
 <path fill="none" stroke="rgb(179,179,179)" stroke-linejoin="round" d="M 24833,15121 L 24683,15121"/>
 <path fill="none" stroke="rgb(179,179,179)" stroke-linejoin="round" d="M 24833,15121 L 24683,15121"/>
 <path fill="none" stroke="rgb(179,179,179)" stroke-linejoin="round" d="M 24833,13066 L 24683,13066"/>
 <path fill="none" stroke="rgb(179,179,179)" stroke-linejoin="round" d="M 24833,13066 L 24683,13066"/>
 <path fill="none" stroke="rgb(179,179,179)" stroke-linejoin="round" d="M 24833,11011 L 24683,11011"/>
 <path fill="none" stroke="rgb(179,179,179)" stroke-linejoin="round" d="M 24833,11011 L 24683,11011"/>
 <path fill="none" stroke="rgb(179,179,179)" stroke-linejoin="round" d="M 24833,8956 L 24683,8956"/>
 <path fill="none" stroke="rgb(179,179,179)" stroke-linejoin="round" d="M 24833,8956 L 24683,8956"/>
 <path fill="none" stroke="rgb(179,179,179)" stroke-linejoin="round" d="M 24833,6901 L 24683,6901"/>
 <path fill="none" stroke="rgb(179,179,179)" stroke-linejoin="round" d="M 24833,6901 L 24683,6901"/>
 <path fill="none" stroke="rgb(179,179,179)" stroke-linejoin="round" d="M 24833,4847 L 24683,4847"/>
 <path fill="none" stroke="rgb(179,179,179)" stroke-linejoin="round" d="M 24833,4847 L 24683,4847"/>
 <path fill="none" stroke="rgb(179,179,179)" stroke-linejoin="round" d="M 24833,2792 L 24683,2792"/>
 <path fill="none" stroke="rgb(179,179,179)" stroke-linejoin="round" d="M 24833,2792 L 24683,2792"/>
 <path fill="none" stroke="rgb(179,179,179)" stroke-linejoin="round" d="M 24683,19231 L 24683,2792"/>
 <path fill="none" stroke="rgb(102,102,102)" stroke-width="80" stroke-linejoin="round" d="M 3303,19230 L 5553,19225 7804,19214 11180,19154 13430,19120 15680,18861 19056,16802 21307,15223 23557,4058"/>
 <path fill="rgb(102,102,102)" stroke="rgb(102,102,102)" stroke-linejoin="round" d="M 3178,19230 L 3303,19355 3428,19230 3303,19105 3178,19230 Z"/>
 <path fill="rgb(102,102,102)" stroke="rgb(102,102,102)" stroke-linejoin="round" d="M 5428,19225 L 5553,19350 5678,19225 5553,19100 5428,19225 Z"/>
 <path fill="rgb(102,102,102)" stroke="rgb(102,102,102)" stroke-linejoin="round" d="M 7679,19214 L 7804,19339 7929,19214 7804,19089 7679,19214 Z"/>
 <path fill="rgb(102,102,102)" stroke="rgb(102,102,102)" stroke-linejoin="round" d="M 11055,19154 L 11180,19279 11305,19154 11180,19029 11055,19154 Z"/>
 <path fill="rgb(102,102,102)" stroke="rgb(102,102,102)" stroke-linejoin="round" d="M 13305,19120 L 13430,19245 13555,19120 13430,18995 13305,19120 Z"/>
 <path fill="rgb(102,102,102)" stroke="rgb(102,102,102)" stroke-linejoin="round" d="M 15555,18861 L 15680,18986 15805,18861 15680,18736 15555,18861 Z"/>
 <path fill="rgb(102,102,102)" stroke="rgb(102,102,102)" stroke-linejoin="round" d="M 18931,16802 L 19056,16927 19181,16802 19056,16677 18931,16802 Z"/>
 <path fill="rgb(102,102,102)" stroke="rgb(102,102,102)" stroke-linejoin="round" d="M 21182,15223 L 21307,15348 21432,15223 21307,15098 21182,15223 Z"/>
 <path fill="rgb(102,102,102)" stroke="rgb(102,102,102)" stroke-linejoin="round" d="M 23432,4058 L 23557,4183 23682,4058 23557,3933 23432,4058 Z"/>
 <path fill="none" stroke="rgb(0,0,0)" stroke-width="80" stroke-linejoin="round" d="M 3303,19228 L 5553,19225 7804,19218 11180,19131 13430,19069 15680,18808 19056,15852 21307,13741 23557,4873"/>
 <path fill="rgb(0,0,0)" stroke="rgb(0,0,0)" stroke-linejoin="round" d="M 3178,19103 L 3178,19353 3428,19353 3428,19103 3178,19103 Z"/>
 <path fill="rgb(0,0,0)" stroke="rgb(0,0,0)" stroke-linejoin="round" d="M 5428,19100 L 5428,19350 5678,19350 5678,19100 5428,19100 Z"/>
 <path fill="rgb(0,0,0)" stroke="rgb(0,0,0)" stroke-linejoin="round" d="M 7679,19093 L 7679,19343 7929,19343 7929,19093 7679,19093 Z"/>
 <path fill="rgb(0,0,0)" stroke="rgb(0,0,0)" stroke-linejoin="round" d="M 11055,19006 L 11055,19256 11305,19256 11305,19006 11055,19006 Z"/>
 <path fill="rgb(0,0,0)" stroke="rgb(0,0,0)" stroke-linejoin="round" d="M 13305,18944 L 13305,19194 13555,19194 13555,18944 13305,18944 Z"/>
 <path fill="rgb(0,0,0)" stroke="rgb(0,0,0)" stroke-linejoin="round" d="M 15555,18683 L 15555,18933 15805,18933 15805,18683 15555,18683 Z"/>
 <path fill="rgb(0,0,0)" stroke="rgb(0,0,0)" stroke-linejoin="round" d="M 18931,15727 L 18931,15977 19181,15977 19181,15727 18931,15727 Z"/>
 <path fill="rgb(0,0,0)" stroke="rgb(0,0,0)" stroke-linejoin="round" d="M 21182,13616 L 21182,13866 21432,13866 21432,13616 21182,13616 Z"/>
 <path fill="rgb(0,0,0)" stroke="rgb(0,0,0)" stroke-linejoin="round" d="M 23432,4748 L 23432,4998 23682,4998 23682,4748 23432,4748 Z"/>
 <text class="TextShape"><tspan class="TextParagraph" font-family="Arial" font-size="353px" font-weight="400"><tspan class="TextPosition" x="2085" y="19799"><tspan fill="rgb(0,0,0)" stroke="none">2</tspan></tspan></tspan></text>
 <text class="TextShape"><tspan class="TextParagraph" font-family="Arial" font-size="353px" font-weight="400"><tspan class="TextPosition" x="4335" y="19799"><tspan fill="rgb(0,0,0)" stroke="none">4</tspan></tspan></tspan></text>
 <text class="TextShape"><tspan class="TextParagraph" font-family="Arial" font-size="353px" font-weight="400"><tspan class="TextPosition" x="6586" y="19799"><tspan fill="rgb(0,0,0)" stroke="none">6</tspan></tspan></tspan></text>
 <text class="TextShape"><tspan class="TextParagraph" font-family="Arial" font-size="353px" font-weight="400"><tspan class="TextPosition" x="8836" y="19799"><tspan fill="rgb(0,0,0)" stroke="none">8</tspan></tspan></tspan></text>
 <text class="TextShape"><tspan class="TextParagraph" font-family="Arial" font-size="353px" font-weight="400"><tspan class="TextPosition" x="10995" y="19799"><tspan fill="rgb(0,0,0)" stroke="none">10</tspan></tspan></tspan></text>
 <text class="TextShape"><tspan class="TextParagraph" font-family="Arial" font-size="353px" font-weight="400"><tspan class="TextPosition" x="13246" y="19799"><tspan fill="rgb(0,0,0)" stroke="none">12</tspan></tspan></tspan></text>
 <text class="TextShape"><tspan class="TextParagraph" font-family="Arial" font-size="353px" font-weight="400"><tspan class="TextPosition" x="15496" y="19799"><tspan fill="rgb(0,0,0)" stroke="none">14</tspan></tspan></tspan></text>
 <text class="TextShape"><tspan class="TextParagraph" font-family="Arial" font-size="353px" font-weight="400"><tspan class="TextPosition" x="17747" y="19799"><tspan fill="rgb(0,0,0)" stroke="none">16</tspan></tspan></tspan></text>
 <text class="TextShape"><tspan class="TextParagraph" font-family="Arial" font-size="353px" font-weight="400"><tspan class="TextPosition" x="19997" y="19799"><tspan fill="rgb(0,0,0)" stroke="none">18</tspan></tspan></tspan></text>
 <text class="TextShape"><tspan class="TextParagraph" font-family="Arial" font-size="353px" font-weight="400"><tspan class="TextPosition" x="22248" y="19799"><tspan fill="rgb(0,0,0)" stroke="none">20</tspan></tspan></tspan></text>
 <text class="TextShape"><tspan class="TextParagraph" font-family="Arial" font-size="353px" font-weight="400"><tspan class="TextPosition" x="24499" y="19799"><tspan fill="rgb(0,0,0)" stroke="none">22</tspan></tspan></tspan></text>
 <text class="TextShape"><tspan class="TextParagraph" font-family="Arial" font-size="353px" font-weight="400"><tspan class="TextPosition" x="1743" y="19352"><tspan fill="rgb(0,0,0)" stroke="none">0</tspan></tspan></tspan></text>
 <text class="TextShape"><tspan class="TextParagraph" font-family="Arial" font-size="353px" font-weight="400"><tspan class="TextPosition" x="1187" y="17525"><tspan fill="rgb(0,0,0)" stroke="none">5000</tspan></tspan></tspan></text>
 <text class="TextShape"><tspan class="TextParagraph" font-family="Arial" font-size="353px" font-weight="400"><tspan class="TextPosition" x="1002" y="15698"><tspan fill="rgb(0,0,0)" stroke="none">10000</tspan></tspan></tspan></text>
 <text class="TextShape"><tspan class="TextParagraph" font-family="Arial" font-size="353px" font-weight="400"><tspan class="TextPosition" x="1002" y="13871"><tspan fill="rgb(0,0,0)" stroke="none">15000</tspan></tspan></tspan></text>
 <text class="TextShape"><tspan class="TextParagraph" font-family="Arial" font-size="353px" font-weight="400"><tspan class="TextPosition" x="1002" y="12044"><tspan fill="rgb(0,0,0)" stroke="none">20000</tspan></tspan></tspan></text>
 <text class="TextShape"><tspan class="TextParagraph" font-family="Arial" font-size="353px" font-weight="400"><tspan class="TextPosition" x="1002" y="10219"><tspan fill="rgb(0,0,0)" stroke="none">25000</tspan></tspan></tspan></text>
 <text class="TextShape"><tspan class="TextParagraph" font-family="Arial" font-size="353px" font-weight="400"><tspan class="TextPosition" x="1002" y="8392"><tspan fill="rgb(0,0,0)" stroke="none">30000</tspan></tspan></tspan></text>
 <text class="TextShape"><tspan class="TextParagraph" font-family="Arial" font-size="353px" font-weight="400"><tspan class="TextPosition" x="1002" y="6565"><tspan fill="rgb(0,0,0)" stroke="none">35000</tspan></tspan></tspan></text>
 <text class="TextShape"><tspan class="TextParagraph" font-family="Arial" font-size="353px" font-weight="400"><tspan class="TextPosition" x="1002" y="4738"><tspan fill="rgb(0,0,0)" stroke="none">40000</tspan></tspan></tspan></text>
 <text class="TextShape"><tspan class="TextParagraph" font-family="Arial" font-size="353px" font-weight="400"><tspan class="TextPosition" x="1002" y="2912"><tspan fill="rgb(0,0,0)" stroke="none">45000</tspan></tspan></tspan></text>
 <text class="TextShape"><tspan class="TextParagraph" font-family="Arial" font-size="353px" font-weight="400"><tspan class="TextPosition" x="24933" y="19352"><tspan fill="rgb(0,0,0)" stroke="none">0</tspan></tspan></tspan></text>
 <text class="TextShape"><tspan class="TextParagraph" font-family="Arial" font-size="353px" font-weight="400"><tspan class="TextPosition" x="24933" y="17296"><tspan fill="rgb(0,0,0)" stroke="none">50</tspan></tspan></tspan></text>
 <text class="TextShape"><tspan class="TextParagraph" font-family="Arial" font-size="353px" font-weight="400"><tspan class="TextPosition" x="24933" y="15241"><tspan fill="rgb(0,0,0)" stroke="none">100</tspan></tspan></tspan></text>
 <text class="TextShape"><tspan class="TextParagraph" font-family="Arial" font-size="353px" font-weight="400"><tspan class="TextPosition" x="24933" y="13186"><tspan fill="rgb(0,0,0)" stroke="none">150</tspan></tspan></tspan></text>
 <text class="TextShape"><tspan class="TextParagraph" font-family="Arial" font-size="353px" font-weight="400"><tspan class="TextPosition" x="24933" y="11131"><tspan fill="rgb(0,0,0)" stroke="none">200</tspan></tspan></tspan></text>
 <text class="TextShape"><tspan class="TextParagraph" font-family="Arial" font-size="353px" font-weight="400"><tspan class="TextPosition" x="24933" y="9077"><tspan fill="rgb(0,0,0)" stroke="none">250</tspan></tspan></tspan></text>
 <text class="TextShape"><tspan class="TextParagraph" font-family="Arial" font-size="353px" font-weight="400"><tspan class="TextPosition" x="24933" y="7022"><tspan fill="rgb(0,0,0)" stroke="none">300</tspan></tspan></tspan></text>
 <text class="TextShape"><tspan class="TextParagraph" font-family="Arial" font-size="353px" font-weight="400"><tspan class="TextPosition" x="24933" y="4967"><tspan fill="rgb(0,0,0)" stroke="none">350</tspan></tspan></tspan></text>
 <text class="TextShape"><tspan class="TextParagraph" font-family="Arial" font-size="353px" font-weight="400"><tspan class="TextPosition" x="24933" y="2912"><tspan fill="rgb(0,0,0)" stroke="none">400</tspan></tspan></tspan></text>
 <path fill="none" stroke="rgb(0,0,0)" stroke-width="80" stroke-linejoin="round" d="M 9366,1394 L 10166,1394"/>
 <path fill="rgb(0,0,0)" stroke="rgb(0,0,0)" stroke-linejoin="round" d="M 9660,1289 L 9660,1499 9871,1499 9871,1289 9660,1289 Z"/>
 <path fill="none" stroke="rgb(102,102,102)" stroke-width="80" stroke-linejoin="round" d="M 14521,1394 L 15321,1394"/>
 <path fill="rgb(102,102,102)" stroke="rgb(102,102,102)" stroke-linejoin="round" d="M 14815,1394 L 14921,1499 15026,1394 14921,1289 14815,1394 Z"/>
 <text class="TextShape"><tspan class="TextParagraph" font-family="Arial" font-size="353px" font-weight="400"><tspan class="TextPosition" x="10266" y="1514"><tspan fill="rgb(0,0,0)" stroke="none">Number of path conditions</tspan></tspan></tspan></text>
 <text class="TextShape"><tspan class="TextParagraph" font-family="Arial" font-size="353px" font-weight="400"><tspan class="TextPosition" x="15421" y="1514"><tspan fill="rgb(0,0,0)" stroke="none">Construction time</tspan></tspan></tspan></text>
 <text class="TextShape"><tspan class="TextParagraph" font-family="Arial" font-size="318px" font-weight="400"><tspan class="TextPosition" x="12029" y="20174"><tspan fill="rgb(0,0,0)" stroke="none">Number of Rules</tspan></tspan></tspan></text>
 <text class="TextShape"><tspan class="TextParagraph" font-family="Arial" font-size="318px" font-weight="400"><tspan class="TextPosition" x="26427" y="11870" transform="translate(26427,11870) rotate(-90) translate(-26427,-11870)"><tspan fill="rgb(0,0,0)" stroke="none">Seconds</tspan></tspan></tspan></text>
</svg>