<?xml version="1.0" encoding="UTF-8"?>
<!DOCTYPE svg PUBLIC "-//W3C//DTD SVG 1.1//EN" "http://www.w3.org/Graphics/SVG/1.1/DTD/svg11.dtd">
<svg width="209mm" height="140mm" viewBox="0 0 20900 14000">
 <path fill="rgb(255,255,255)" stroke="none" d="M 10468,13908 L 0,13908 0,-64 20936,-64 20936,13908 10468,13908 Z"/>
 <path fill="none" stroke="rgb(179,179,179)" stroke-linejoin="round" d="M 10246,12001 L 2236,12001 2236,2169 18255,2169 18255,12001 10246,12001 Z"/>
 <path fill="none" stroke="rgb(179,179,179)" stroke-linejoin="round" d="M 18255,12000 L 2236,12000"/>
 <path fill="none" stroke="rgb(179,179,179)" stroke-linejoin="round" d="M 18255,10907 L 2236,10907"/>
 <path fill="none" stroke="rgb(179,179,179)" stroke-linejoin="round" d="M 18255,9814 L 2236,9814"/>
 <path fill="none" stroke="rgb(179,179,179)" stroke-linejoin="round" d="M 18255,8722 L 2236,8722"/>
 <path fill="none" stroke="rgb(179,179,179)" stroke-linejoin="round" d="M 18255,7629 L 2236,7629"/>
 <path fill="none" stroke="rgb(179,179,179)" stroke-linejoin="round" d="M 18255,6538 L 2236,6538"/>
 <path fill="none" stroke="rgb(179,179,179)" stroke-linejoin="round" d="M 18255,5445 L 2236,5445"/>
 <path fill="none" stroke="rgb(179,179,179)" stroke-linejoin="round" d="M 18255,4353 L 2236,4353"/>
 <path fill="none" stroke="rgb(179,179,179)" stroke-linejoin="round" d="M 18255,3260 L 2236,3260"/>
 <path fill="none" stroke="rgb(179,179,179)" stroke-linejoin="round" d="M 18255,2168 L 2236,2168"/>
 <path fill="none" stroke="rgb(179,179,179)" stroke-linejoin="round" d="M 2236,12150 L 2236,12000"/>
 <path fill="none" stroke="rgb(179,179,179)" stroke-linejoin="round" d="M 2236,12150 L 2236,12000"/>
 <path fill="none" stroke="rgb(179,179,179)" stroke-linejoin="round" d="M 6241,12150 L 6241,12000"/>
 <path fill="none" stroke="rgb(179,179,179)" stroke-linejoin="round" d="M 6241,12150 L 6241,12000"/>
 <path fill="none" stroke="rgb(179,179,179)" stroke-linejoin="round" d="M 10246,12150 L 10246,12000"/>
 <path fill="none" stroke="rgb(179,179,179)" stroke-linejoin="round" d="M 10246,12150 L 10246,12000"/>
 <path fill="none" stroke="rgb(179,179,179)" stroke-linejoin="round" d="M 14250,12150 L 14250,12000"/>
 <path fill="none" stroke="rgb(179,179,179)" stroke-linejoin="round" d="M 14250,12150 L 14250,12000"/>
 <path fill="none" stroke="rgb(179,179,179)" stroke-linejoin="round" d="M 18255,12150 L 18255,12000"/>
 <path fill="none" stroke="rgb(179,179,179)" stroke-linejoin="round" d="M 18255,12150 L 18255,12000"/>
 <path fill="none" stroke="rgb(179,179,179)" stroke-linejoin="round" d="M 2236,12000 L 18255,12000"/>
 <path fill="none" stroke="rgb(179,179,179)" stroke-linejoin="round" d="M 2086,12000 L 2236,12000"/>
 <path fill="none" stroke="rgb(179,179,179)" stroke-linejoin="round" d="M 2086,12000 L 2236,12000"/>
 <path fill="none" stroke="rgb(179,179,179)" stroke-linejoin="round" d="M 2086,10907 L 2236,10907"/>
 <path fill="none" stroke="rgb(179,179,179)" stroke-linejoin="round" d="M 2086,10907 L 2236,10907"/>
 <path fill="none" stroke="rgb(179,179,179)" stroke-linejoin="round" d="M 2086,9814 L 2236,9814"/>
 <path fill="none" stroke="rgb(179,179,179)" stroke-linejoin="round" d="M 2086,9814 L 2236,9814"/>
 <path fill="none" stroke="rgb(179,179,179)" stroke-linejoin="round" d="M 2086,8722 L 2236,8722"/>
 <path fill="none" stroke="rgb(179,179,179)" stroke-linejoin="round" d="M 2086,8722 L 2236,8722"/>
 <path fill="none" stroke="rgb(179,179,179)" stroke-linejoin="round" d="M 2086,7629 L 2236,7629"/>
 <path fill="none" stroke="rgb(179,179,179)" stroke-linejoin="round" d="M 2086,7629 L 2236,7629"/>
 <path fill="none" stroke="rgb(179,179,179)" stroke-linejoin="round" d="M 2086,6538 L 2236,6538"/>
 <path fill="none" stroke="rgb(179,179,179)" stroke-linejoin="round" d="M 2086,6538 L 2236,6538"/>
 <path fill="none" stroke="rgb(179,179,179)" stroke-linejoin="round" d="M 2086,5445 L 2236,5445"/>
 <path fill="none" stroke="rgb(179,179,179)" stroke-linejoin="round" d="M 2086,5445 L 2236,5445"/>
 <path fill="none" stroke="rgb(179,179,179)" stroke-linejoin="round" d="M 2086,4353 L 2236,4353"/>
 <path fill="none" stroke="rgb(179,179,179)" stroke-linejoin="round" d="M 2086,4353 L 2236,4353"/>
 <path fill="none" stroke="rgb(179,179,179)" stroke-linejoin="round" d="M 2086,3260 L 2236,3260"/>
 <path fill="none" stroke="rgb(179,179,179)" stroke-linejoin="round" d="M 2086,3260 L 2236,3260"/>
 <path fill="none" stroke="rgb(179,179,179)" stroke-linejoin="round" d="M 2086,2168 L 2236,2168"/>
 <path fill="none" stroke="rgb(179,179,179)" stroke-linejoin="round" d="M 2086,2168 L 2236,2168"/>
 <path fill="none" stroke="rgb(179,179,179)" stroke-linejoin="round" d="M 2236,12000 L 2236,2168"/>
 <path fill="none" stroke="rgb(179,179,179)" stroke-linejoin="round" d="M 18405,12000 L 18255,12000"/>
 <path fill="none" stroke="rgb(179,179,179)" stroke-linejoin="round" d="M 18405,12000 L 18255,12000"/>
 <path fill="none" stroke="rgb(179,179,179)" stroke-linejoin="round" d="M 18405,10595 L 18255,10595"/>
 <path fill="none" stroke="rgb(179,179,179)" stroke-linejoin="round" d="M 18405,10595 L 18255,10595"/>
 <path fill="none" stroke="rgb(179,179,179)" stroke-linejoin="round" d="M 18405,9190 L 18255,9190"/>
 <path fill="none" stroke="rgb(179,179,179)" stroke-linejoin="round" d="M 18405,9190 L 18255,9190"/>
 <path fill="none" stroke="rgb(179,179,179)" stroke-linejoin="round" d="M 18405,7785 L 18255,7785"/>
 <path fill="none" stroke="rgb(179,179,179)" stroke-linejoin="round" d="M 18405,7785 L 18255,7785"/>
 <path fill="none" stroke="rgb(179,179,179)" stroke-linejoin="round" d="M 18405,6382 L 18255,6382"/>
 <path fill="none" stroke="rgb(179,179,179)" stroke-linejoin="round" d="M 18405,6382 L 18255,6382"/>
 <path fill="none" stroke="rgb(179,179,179)" stroke-linejoin="round" d="M 18405,4977 L 18255,4977"/>
 <path fill="none" stroke="rgb(179,179,179)" stroke-linejoin="round" d="M 18405,4977 L 18255,4977"/>
 <path fill="none" stroke="rgb(179,179,179)" stroke-linejoin="round" d="M 18405,3572 L 18255,3572"/>
 <path fill="none" stroke="rgb(179,179,179)" stroke-linejoin="round" d="M 18405,3572 L 18255,3572"/>
 <path fill="none" stroke="rgb(179,179,179)" stroke-linejoin="round" d="M 18405,2168 L 18255,2168"/>
 <path fill="none" stroke="rgb(179,179,179)" stroke-linejoin="round" d="M 18405,2168 L 18255,2168"/>
 <path fill="none" stroke="rgb(179,179,179)" stroke-linejoin="round" d="M 18255,12000 L 18255,2168"/>
 <path fill="none" stroke="rgb(102,102,102)" stroke-width="80" stroke-linejoin="round" d="M 3053,3572 L 4364,3572 7981,3572 8825,3572 10497,3572 14114,3572 14958,3572 16630,3572"/>
 <path fill="rgb(102,102,102)" stroke="rgb(102,102,102)" stroke-linejoin="round" d="M 2928,3572 L 3053,3697 3178,3572 3053,3447 2928,3572 Z"/>
 <path fill="rgb(102,102,102)" stroke="rgb(102,102,102)" stroke-linejoin="round" d="M 4239,3572 L 4364,3697 4489,3572 4364,3447 4239,3572 Z"/>
 <path fill="rgb(102,102,102)" stroke="rgb(102,102,102)" stroke-linejoin="round" d="M 7856,3572 L 7981,3697 8106,3572 7981,3447 7856,3572 Z"/>
 <path fill="rgb(102,102,102)" stroke="rgb(102,102,102)" stroke-linejoin="round" d="M 8700,3572 L 8825,3697 8950,3572 8825,3447 8700,3572 Z"/>
 <path fill="rgb(102,102,102)" stroke="rgb(102,102,102)" stroke-linejoin="round" d="M 10373,3572 L 10497,3697 10622,3572 10497,3447 10373,3572 Z"/>
 <path fill="rgb(102,102,102)" stroke="rgb(102,102,102)" stroke-linejoin="round" d="M 13989,3572 L 14114,3697 14239,3572 14114,3447 13989,3572 Z"/>
 <path fill="rgb(102,102,102)" stroke="rgb(102,102,102)" stroke-linejoin="round" d="M 14833,3572 L 14958,3697 15083,3572 14958,3447 14833,3572 Z"/>
 <path fill="rgb(102,102,102)" stroke="rgb(102,102,102)" stroke-linejoin="round" d="M 16505,3572 L 16630,3697 16755,3572 16630,3447 16505,3572 Z"/>
 <path fill="none" stroke="rgb(0,0,0)" stroke-width="80" stroke-linejoin="round" d="M 3053,11995 L 4364,11972 7981,11947 8825,11925 10497,11816 14114,10393 14958,8924 16630,2997"/>
 <path fill="rgb(0,0,0)" stroke="rgb(0,0,0)" stroke-linejoin="round" d="M 2928,11870 L 2928,12120 3178,12120 3178,11870 2928,11870 Z"/>
 <path fill="rgb(0,0,0)" stroke="rgb(0,0,0)" stroke-linejoin="round" d="M 4239,11847 L 4239,12097 4489,12097 4489,11847 4239,11847 Z"/>
 <path fill="rgb(0,0,0)" stroke="rgb(0,0,0)" stroke-linejoin="round" d="M 7856,11822 L 7856,12072 8106,12072 8106,11822 7856,11822 Z"/>
 <path fill="rgb(0,0,0)" stroke="rgb(0,0,0)" stroke-linejoin="round" d="M 8700,11800 L 8700,12050 8950,12050 8950,11800 8700,11800 Z"/>
 <path fill="rgb(0,0,0)" stroke="rgb(0,0,0)" stroke-linejoin="round" d="M 10373,11691 L 10373,11941 10622,11941 10622,11691 10373,11691 Z"/>
 <path fill="rgb(0,0,0)" stroke="rgb(0,0,0)" stroke-linejoin="round" d="M 13989,10268 L 13989,10518 14239,10518 14239,10268 13989,10268 Z"/>
 <path fill="rgb(0,0,0)" stroke="rgb(0,0,0)" stroke-linejoin="round" d="M 14833,8799 L 14833,9049 15083,9049 15083,8799 14833,8799 Z"/>
 <path fill="rgb(0,0,0)" stroke="rgb(0,0,0)" stroke-linejoin="round" d="M 16505,2872 L 16505,3122 16755,3122 16755,2872 16505,2872 Z"/>
 <text class="TextShape"><tspan class="TextParagraph" font-family="Arial" font-size="353px" font-weight="400"><tspan class="TextPosition" x="2051" y="12568"><tspan fill="rgb(0,0,0)" stroke="none">10</tspan></tspan></tspan></text>
 <text class="TextShape"><tspan class="TextParagraph" font-family="Arial" font-size="353px" font-weight="400"><tspan class="TextPosition" x="5963" y="12568"><tspan fill="rgb(0,0,0)" stroke="none">100</tspan></tspan></tspan></text>
 <text class="TextShape"><tspan class="TextParagraph" font-family="Arial" font-size="353px" font-weight="400"><tspan class="TextPosition" x="9875" y="12568"><tspan fill="rgb(0,0,0)" stroke="none">1000</tspan></tspan></tspan></text>
 <text class="TextShape"><tspan class="TextParagraph" font-family="Arial" font-size="353px" font-weight="400"><tspan class="TextPosition" x="13788" y="12568"><tspan fill="rgb(0,0,0)" stroke="none">10000</tspan></tspan></tspan></text>
 <text class="TextShape"><tspan class="TextParagraph" font-family="Arial" font-size="353px" font-weight="400"><tspan class="TextPosition" x="17700" y="12568"><tspan fill="rgb(0,0,0)" stroke="none">100000</tspan></tspan></tspan></text>
 <text class="TextShape"><tspan class="TextParagraph" font-family="Arial" font-size="353px" font-weight="400"><tspan class="TextPosition" x="1801" y="12121"><tspan fill="rgb(0,0,0)" stroke="none">0</tspan></tspan></tspan></text>
 <text class="TextShape"><tspan class="TextParagraph" font-family="Arial" font-size="353px" font-weight="400"><tspan class="TextPosition" x="1616" y="11028"><tspan fill="rgb(0,0,0)" stroke="none">50</tspan></tspan></tspan></text>
 <text class="TextShape"><tspan class="TextParagraph" font-family="Arial" font-size="353px" font-weight="400"><tspan class="TextPosition" x="1430" y="9935"><tspan fill="rgb(0,0,0)" stroke="none">100</tspan></tspan></tspan></text>
 <text class="TextShape"><tspan class="TextParagraph" font-family="Arial" font-size="353px" font-weight="400"><tspan class="TextPosition" x="1430" y="8843"><tspan fill="rgb(0,0,0)" stroke="none">150</tspan></tspan></tspan></text>
 <text class="TextShape"><tspan class="TextParagraph" font-family="Arial" font-size="353px" font-weight="400"><tspan class="TextPosition" x="1430" y="7750"><tspan fill="rgb(0,0,0)" stroke="none">200</tspan></tspan></tspan></text>
 <text class="TextShape"><tspan class="TextParagraph" font-family="Arial" font-size="353px" font-weight="400"><tspan class="TextPosition" x="1430" y="6658"><tspan fill="rgb(0,0,0)" stroke="none">250</tspan></tspan></tspan></text>
 <text class="TextShape"><tspan class="TextParagraph" font-family="Arial" font-size="353px" font-weight="400"><tspan class="TextPosition" x="1430" y="5565"><tspan fill="rgb(0,0,0)" stroke="none">300</tspan></tspan></tspan></text>
 <text class="TextShape"><tspan class="TextParagraph" font-family="Arial" font-size="353px" font-weight="400"><tspan class="TextPosition" x="1430" y="4473"><tspan fill="rgb(0,0,0)" stroke="none">350</tspan></tspan></tspan></text>
 <text class="TextShape"><tspan class="TextParagraph" font-family="Arial" font-size="353px" font-weight="400"><tspan class="TextPosition" x="1430" y="3380"><tspan fill="rgb(0,0,0)" stroke="none">400</tspan></tspan></tspan></text>
 <text class="TextShape"><tspan class="TextParagraph" font-family="Arial" font-size="353px" font-weight="400"><tspan class="TextPosition" x="1430" y="2288"><tspan fill="rgb(0,0,0)" stroke="none">450</tspan></tspan></tspan></text>
 <text class="TextShape"><tspan class="TextParagraph" font-family="Arial" font-size="353px" font-weight="400"><tspan class="TextPosition" x="18505" y="12121"><tspan fill="rgb(0,0,0)" stroke="none">0</tspan></tspan></tspan></text>
 <text class="TextShape"><tspan class="TextParagraph" font-family="Arial" font-size="353px" font-weight="400"><tspan class="TextPosition" x="18505" y="10716"><tspan fill="rgb(0,0,0)" stroke="none">0.0005</tspan></tspan></tspan></text>
 <text class="TextShape"><tspan class="TextParagraph" font-family="Arial" font-size="353px" font-weight="400"><tspan class="TextPosition" x="18505" y="9311"><tspan fill="rgb(0,0,0)" stroke="none">0.001</tspan></tspan></tspan></text>
 <text class="TextShape"><tspan class="TextParagraph" font-family="Arial" font-size="353px" font-weight="400"><tspan class="TextPosition" x="18505" y="7906"><tspan fill="rgb(0,0,0)" stroke="none">0.0015</tspan></tspan></tspan></text>
 <text class="TextShape"><tspan class="TextParagraph" font-family="Arial" font-size="353px" font-weight="400"><tspan class="TextPosition" x="18505" y="6502"><tspan fill="rgb(0,0,0)" stroke="none">0.002</tspan></tspan></tspan></text>
 <text class="TextShape"><tspan class="TextParagraph" font-family="Arial" font-size="353px" font-weight="400"><tspan class="TextPosition" x="18505" y="5097"><tspan fill="rgb(0,0,0)" stroke="none">0.0025</tspan></tspan></tspan></text>
 <text class="TextShape"><tspan class="TextParagraph" font-family="Arial" font-size="353px" font-weight="400"><tspan class="TextPosition" x="18505" y="3692"><tspan fill="rgb(0,0,0)" stroke="none">0.003</tspan></tspan></tspan></text>
 <text class="TextShape"><tspan class="TextParagraph" font-family="Arial" font-size="353px" font-weight="400"><tspan class="TextPosition" x="18505" y="2288"><tspan fill="rgb(0,0,0)" stroke="none">0.0035</tspan></tspan></tspan></text>
 <path fill="none" stroke="rgb(0,0,0)" stroke-width="80" stroke-linejoin="round" d="M 4701,1112 L 5501,1112"/>
 <path fill="rgb(0,0,0)" stroke="rgb(0,0,0)" stroke-linejoin="round" d="M 4995,1007 L 4995,1217 5206,1217 5206,1007 4995,1007 Z"/>
 <path fill="none" stroke="rgb(102,102,102)" stroke-width="80" stroke-linejoin="round" d="M 10227,1112 L 11026,1112"/>
 <path fill="rgb(102,102,102)" stroke="rgb(102,102,102)" stroke-linejoin="round" d="M 10520,1112 L 10626,1217 10731,1112 10626,1007 10520,1112 Z"/>
 <text class="TextShape"><tspan class="TextParagraph" font-family="Arial" font-size="353px" font-weight="400"><tspan class="TextPosition" x="5601" y="1232"><tspan fill="rgb(0,0,0)" stroke="none">Time to prove valid property </tspan></tspan></tspan></text>
 <text class="TextShape"><tspan class="TextParagraph" font-family="Arial" font-size="353px" font-weight="400"><tspan class="TextPosition" x="11126" y="1232"><tspan fill="rgb(0,0,0)" stroke="none">Time to disprove invalid property </tspan></tspan></tspan></text>
 <text class="TextShape"><tspan class="TextParagraph" font-family="Arial" font-size="318px" font-weight="400"><tspan class="TextPosition" x="8539" y="13314"><tspan fill="rgb(0,0,0)" stroke="none">Number of Path Conditions</tspan></tspan></tspan></text>
 <text class="TextShape"><tspan class="TextParagraph" font-family="Arial" font-size="318px" font-weight="400"><tspan class="TextPosition" x="837" y="7943" transform="translate(837,7943) rotate(-90) translate(-837,-7943)"><tspan fill="rgb(0,0,0)" stroke="none">Seconds</tspan></tspan></tspan></text>
 <text class="TextShape"><tspan class="TextParagraph" font-family="Arial" font-size="318px" font-weight="400"><tspan class="TextPosition" x="20344" y="7943" transform="translate(20344,7943) rotate(-90) translate(-20344,-7943)"><tspan fill="rgb(0,0,0)" stroke="none">Seconds</tspan></tspan></tspan></text>
</svg>