<?xml version="1.0" encoding="utf-8" standalone="no"?>
<!DOCTYPE svg PUBLIC "-//W3C//DTD SVG 1.1//EN"
  "http://www.w3.org/Graphics/SVG/1.1/DTD/svg11.dtd">
<!-- Created with matplotlib (http://matplotlib.org/) -->
<svg height="402pt" version="1.1" viewBox="0 0 515 402" width="515pt" xmlns="http://www.w3.org/2000/svg" xmlns:xlink="http://www.w3.org/1999/xlink">
 <defs>
  <style type="text/css">
*{stroke-linecap:square;stroke-linejoin:round;}
  </style>
 </defs>
 <g id="figure_1">
  <g id="patch_1">
   <path d="
M0 402.108
L515.929 402.108
L515.929 0
L0 0
z
" style="fill:none;opacity:0.0;"/>
  </g>
  <g id="axes_1">
   <g id="patch_2">
    <path d="
M65.9294 359.32
L512.329 359.32
L512.329 13.72
L65.9294 13.72
z
" style="fill:none;opacity:0.0;"/>
   </g>
   <g id="line2d_1">
    <path clip-path="url(#p00361e47c4)" d="
M65.9294 296.898
L115.529 276.091
L165.129 253.464
L239.529 191.043
L289.129 176.468
L338.729 147.608
L413.129 85.1868
L462.729 70.6126
L512.329 41.7525" style="fill:none;stroke:#0000ff;"/>
   </g>
   <g id="matplotlib.axis_1">
    <g id="xtick_1">
     <g id="line2d_2">
      <defs>
       <path d="
M0 0
L0 -4" id="mcb557df647" style="stroke:#000000;stroke-linecap:butt;stroke-width:0.5;"/>
      </defs>
      <g>
       <use style="stroke:#000000;stroke-linecap:butt;stroke-width:0.5;" x="115.529375" xlink:href="#mcb557df647" y="359.32"/>
      </g>
     </g>
     <g id="line2d_3">
      <defs>
       <path d="
M0 0
L0 4" id="mdad270ee8e" style="stroke:#000000;stroke-linecap:butt;stroke-width:0.5;"/>
      </defs>
      <g>
       <use style="stroke:#000000;stroke-linecap:butt;stroke-width:0.5;" x="115.529375" xlink:href="#mdad270ee8e" y="13.72"/>
      </g>
     </g>
     <g id="text_1">
      <!-- 5 -->
      <defs>
       <path d="
M12.1094 8.98438
Q13.7656 6.5 16.2344 5.04688
Q18.7031 3.60938 21.5781 3.60938
Q27.2969 3.60938 28.8125 8.09375
Q30.3281 12.5938 30.3281 19.9219
L30.3281 20.2188
Q30.3281 36.9219 24.6094 36.9219
Q20.6094 36.9219 18.375 35.625
Q16.1562 34.3281 14.4531 32.2656
Q12.75 30.2188 12.1094 30.0781
L10.4062 30.0781
Q9.07812 30.4688 8.79688 31.6875
L8.79688 63.9219
Q9.07812 65.1875 10.4062 65.4844
L10.7969 65.375
Q17.5312 62.3125 24.9062 62.3125
Q32.2344 62.3125 39.1094 65.375
Q39.5 65.4844 39.5938 65.4844
Q40.6719 65.4844 41.0156 64.3125
L41.0156 62.7969
Q40.4844 60.6406 37.5312 57.6875
Q34.5781 54.7344 32.0781 53.2188
Q26.125 49.6094 19.2812 49.6094
Q16.6562 49.6094 14.5 50
L14.5 37.7969
Q18.6094 40.9219 24.6094 40.9219
Q33.8438 40.9219 39.375 35.1719
Q44.9219 29.4375 44.9219 20.125
Q44.9219 13.4844 41.8125 8.67188
Q38.7188 3.85938 33.375 1.35938
Q28.0312 -1.125 21.5781 -1.125
Q17.0469 -1.125 13.2031 1.23438
Q9.375 3.60938 7.17188 7.53125
Q4.98438 11.4688 4.98438 16.0156
Q4.98438 18.8906 6.98438 20.8906
Q8.98438 22.9062 11.9219 22.9062
Q13.8125 22.9062 15.4062 22
Q17 21.0938 17.8906 19.5
Q18.7969 17.9219 18.7969 16.0156
Q18.7969 13.1406 16.8438 11.0625
Q14.8906 8.98438 12.1094 8.98438" id="Cmb10-35"/>
      </defs>
      <g transform="translate(111.13625 377.7265625)scale(0.22 -0.22)">
       <use xlink:href="#Cmb10-35"/>
      </g>
     </g>
    </g>
    <g id="xtick_2">
     <g id="line2d_4">
      <g>
       <use style="stroke:#000000;stroke-linecap:butt;stroke-width:0.5;" x="239.529375" xlink:href="#mcb557df647" y="359.32"/>
      </g>
     </g>
     <g id="line2d_5">
      <g>
       <use style="stroke:#000000;stroke-linecap:butt;stroke-width:0.5;" x="239.529375" xlink:href="#mdad270ee8e" y="13.72"/>
      </g>
     </g>
     <g id="text_2">
      <!-- 10 -->
      <defs>
       <path d="
M8.29688 0
L8.29688 5.07812
L19.2812 5.07812
L19.2812 55.6094
Q14.1094 54 6.89062 54
L6.89062 59.0781
Q20.8438 59.0781 27.5938 65.4844
L29.9844 65.4844
Q31.2969 65.1875 31.5938 63.9219
L31.5938 5.07812
L43.0156 5.07812
L43.0156 0
z
" id="Cmb10-31"/>
       <path d="
M25 -1.125
Q18.3594 -1.125 14.0312 1.75
Q9.71875 4.64062 7.51562 9.51562
Q5.32812 14.4062 4.60938 19.8906
Q3.90625 25.3906 3.90625 31.7812
Q3.90625 40.7188 5.375 48.0938
Q6.84375 55.4688 11.5 60.4688
Q16.1562 65.4844 25 65.4844
Q37.6406 65.4844 41.8125 55.9375
Q46 46.3906 46 31.7812
Q46 22.9062 44.5469 15.75
Q43.1094 8.59375 38.4531 3.73438
Q33.7969 -1.125 25 -1.125
M17.6719 9.90625
Q18.5 6.9375 20.4062 4.90625
Q22.3125 2.875 25 2.875
Q27.5938 2.875 29.5156 4.95312
Q31.4531 7.03125 32.1719 9.90625
Q32.8125 12.4062 32.8125 33.5
Q32.8125 52.7812 32.1719 55.0781
Q31.3438 57.7656 29.4688 59.6406
Q27.5938 61.5312 25 61.5312
Q22.4062 61.5312 20.5 59.6719
Q18.6094 57.8125 17.6719 55.0781
Q17.0938 52.7812 17.0938 33.5
Q17.0938 12.4062 17.6719 9.90625" id="Cmb10-30"/>
      </defs>
      <g transform="translate(229.72734375 377.7265625)scale(0.22 -0.22)">
       <use xlink:href="#Cmb10-31"/>
       <use x="50.0" xlink:href="#Cmb10-30"/>
      </g>
     </g>
    </g>
    <g id="xtick_3">
     <g id="line2d_6">
      <g>
       <use style="stroke:#000000;stroke-linecap:butt;stroke-width:0.5;" x="363.529375" xlink:href="#mcb557df647" y="359.32"/>
      </g>
     </g>
     <g id="line2d_7">
      <g>
       <use style="stroke:#000000;stroke-linecap:butt;stroke-width:0.5;" x="363.529375" xlink:href="#mdad270ee8e" y="13.72"/>
      </g>
     </g>
     <g id="text_3">
      <!-- 15 -->
      <g transform="translate(353.8459375 377.7265625)scale(0.22 -0.22)">
       <use xlink:href="#Cmb10-31"/>
       <use x="50.0" xlink:href="#Cmb10-35"/>
      </g>
     </g>
    </g>
    <g id="xtick_4">
     <g id="line2d_8">
      <g>
       <use style="stroke:#000000;stroke-linecap:butt;stroke-width:0.5;" x="487.529375" xlink:href="#mcb557df647" y="359.32"/>
      </g>
     </g>
     <g id="line2d_9">
      <g>
       <use style="stroke:#000000;stroke-linecap:butt;stroke-width:0.5;" x="487.529375" xlink:href="#mdad270ee8e" y="13.72"/>
      </g>
     </g>
     <g id="text_4">
      <!-- 20 -->
      <defs>
       <path d="
M4.98438 0
L4.98438 3.90625
Q5.03125 4.15625 5.42188 4.6875
L20.7031 23.875
Q23.5781 27.5469 25.7812 31.0625
Q27.9844 34.5781 29.3438 38.4219
Q30.7188 42.2812 30.7188 46.2969
Q30.7188 49.6094 29.7812 52.9062
Q28.8594 56.2031 26.75 58.2969
Q24.6562 60.4062 21.1875 60.4062
Q17 60.4062 13.9219 57.625
Q16.6094 57.0312 18.2188 55.0312
Q19.8281 53.0312 19.8281 50.2969
Q19.8281 47.125 17.6719 45.0156
Q15.5312 42.9219 12.4062 42.9219
Q10.2969 42.9219 8.64062 43.875
Q6.98438 44.8281 5.98438 46.5312
Q4.98438 48.25 4.98438 50.2969
Q4.98438 54.9375 7.6875 58.3906
Q10.4062 61.8594 14.7031 63.6719
Q19 65.4844 23.5781 65.4844
Q29.25 65.4844 34.1562 63.1406
Q39.0625 60.7969 41.9844 56.3906
Q44.9219 52 44.9219 46.2969
Q44.9219 42.3906 43.2812 39.0625
Q41.6562 35.75 39.2031 33.1719
Q36.7656 30.6094 32.2031 26.7031
Q27.6406 22.7969 26.8125 22.0156
L17.2812 12.8906
L21.6875 12.8906
Q37.0156 12.8906 37.5 13.4844
Q38.875 14.8438 39.7969 22.6094
L44.9219 22.6094
L41.7969 0
z
" id="Cmb10-32"/>
      </defs>
      <g transform="translate(477.51765625 377.7265625)scale(0.22 -0.22)">
       <use xlink:href="#Cmb10-32"/>
       <use x="50.0" xlink:href="#Cmb10-30"/>
      </g>
     </g>
    </g>
    <g id="text_5">
     <!-- Number of rules -->
     <defs>
      <path d="
M2.78125 22.5156
Q2.78125 29 5.46875 34.2031
Q8.15625 39.4062 13.1562 42.3594
Q18.1719 45.3125 24.7031 45.3125
Q31.2969 45.3125 35.5469 42.5938
Q39.7969 39.8906 41.7969 35.0312
Q43.7969 30.1719 43.7969 23.7812
Q43.7969 22.3125 42.1875 21.7812
L16.0156 21.7812
Q16.0156 16.8438 16.7188 12.9531
Q17.4375 9.07812 19.9219 6.4375
Q22.4062 3.8125 27.2031 3.8125
Q31.25 3.8125 34.5 6.15625
Q37.75 8.5 38.8125 12.3125
Q39.3594 13.2344 40.2812 13.4844
L42.1875 13.4844
Q43.7969 13.1406 43.7969 11.7188
Q43.7969 11.625 43.7031 11.0781
Q42.5312 7.42188 39.8906 4.8125
Q37.25 2.20312 33.5938 0.796875
Q29.9375 -0.59375 26.125 -0.59375
Q21.0469 -0.59375 16.75 1.04688
Q12.4531 2.6875 9.32812 5.73438
Q6.20312 8.79688 4.48438 13.0625
Q2.78125 17.3281 2.78125 22.5156
M16.0156 25.4844
L33.8906 25.4844
Q33.8906 29.2031 33.125 32.7344
Q32.375 36.2812 30.3125 38.7969
Q28.2656 41.3125 24.7031 41.3125
Q19.5312 41.3125 17.7656 36.5781
Q16.0156 31.8438 16.0156 25.4844" id="Cmb10-65"/>
      <path d="
M9.07812 11.625
L9.07812 36.2812
Q9.07812 39.1094 2.20312 39.1094
L2.20312 44.1875
L20.9062 45.0156
L20.9062 12.0156
L20.9062 11.625
Q20.9062 8.0625 21.2188 6.5
Q21.5312 4.9375 22.875 4.17188
Q24.2188 3.42188 27.3906 3.42188
Q31.8438 3.42188 34.3281 7.29688
Q36.8125 11.1875 36.8125 15.9219
L36.8125 36.2812
Q36.8125 39.1094 29.8906 39.1094
L29.8906 44.1875
L48.5781 45.0156
L48.5781 7.90625
Q48.5781 6.10938 50.5625 5.59375
Q52.5469 5.07812 55.5156 5.07812
L55.5156 0
L37.4062 -0.59375
L37.4062 6
Q33.3438 -0.59375 26.5156 -0.59375
Q21.3906 -0.59375 17.6562 0.3125
Q13.9219 1.21875 11.5 3.90625
Q9.07812 6.59375 9.07812 11.625" id="Cmb10-75"/>
      <path d="
M3.32812 0.6875
L3.32812 14.5938
Q3.5625 15.5312 4.59375 15.8281
L7.17188 15.8281
Q8.15625 15.4844 8.40625 14.5938
Q10.9844 3.42188 19.6719 3.42188
Q28.5156 3.42188 28.5156 10.6875
Q28.5156 12.5 27.5781 13.9375
Q26.6562 15.375 25.1406 16.3281
Q23.6406 17.2812 21.9219 17.6719
L15.9219 18.8906
Q10.5 20.2188 6.90625 23.5625
Q3.32812 26.9062 3.32812 31.8906
Q3.32812 35.5 4.5625 38.125
Q5.8125 40.7656 8.07812 42.3594
Q10.3594 43.9531 13.2344 44.625
Q16.1094 45.3125 19.6719 45.3125
Q24.3594 45.3125 27.4844 43.6094
L30.7188 45.2188
L31.1094 45.3125
L32.3281 45.3125
Q33.25 45.0625 33.5 44.0938
L33.5 33.1094
Q33.25 32.0312 32.3281 31.7812
L29.6875 31.7812
Q28.6562 32.0312 28.4219 33.1094
Q28.4219 35.75 27.3125 37.6719
Q26.2188 39.5938 24.2188 40.6406
Q22.2188 41.7031 19.4844 41.7031
Q10.7969 41.7031 10.7969 35.6875
Q10.7969 33.5 12.6719 32
Q14.5469 30.5156 17 29.8906
L23.0938 28.7188
Q26.7656 27.7812 29.6406 25.8438
Q32.5156 23.9219 34.25 20.9219
Q35.9844 17.9219 35.9844 14.2031
Q35.9844 6.6875 31.5938 3.04688
Q27.2031 -0.59375 19.6719 -0.59375
Q14.0156 -0.59375 10.2969 2.20312
L6.10938 -0.484375
L5.71875 -0.59375
L4.59375 -0.59375
Q3.5625 -0.34375 3.32812 0.6875" id="Cmb10-73"/>
      <path d="
M1.42188 0
L1.42188 5.07812
L8.29688 5.07812
L8.29688 36.2812
Q8.29688 39.1094 1.42188 39.1094
L1.42188 44.1875
L18.4062 45.0156
L18.4062 36.8125
Q19.8281 40.5312 22.4375 42.7656
Q25.0469 45.0156 28.7188 45.0156
Q31.3438 45.0156 33.9531 44.0938
Q36.5781 43.1719 38.2812 41.2656
Q39.9844 39.3594 39.9844 36.625
Q39.9844 34.0312 38.1719 32.1719
Q36.375 30.3281 33.6875 30.3281
Q31 30.3281 29.1875 32.1719
Q27.3906 34.0312 27.3906 36.625
Q27.3906 39.2656 29 41.0156
L28.7188 41.0156
Q23.25 41.0156 21.3594 35.125
Q19.4844 29.25 19.4844 22.125
L19.4844 5.07812
L28.2188 5.07812
L28.2188 0
z
" id="Cmb10-72"/>
      <path d="
M8.29688 0
L8.29688 60.6875
Q8.29688 62.5469 6.34375 63.0156
Q4.39062 63.4844 1.42188 63.4844
L1.42188 68.6094
L19.4844 69.3906
L19.4844 41.0156
Q24.9062 45.0156 31.5938 45.0156
Q38.0938 45.0156 42.7188 41.9844
Q47.3594 38.9688 49.7812 33.7812
Q52.2031 28.6094 52.2031 22.2188
Q52.2031 15.625 49.5312 10.4219
Q46.875 5.21875 41.8594 2.3125
Q36.8594 -0.59375 30.3281 -0.59375
Q26.8125 -0.59375 23.7031 0.796875
Q20.6094 2.20312 18.1094 4.6875
L13.375 0
z

M20.125 9.07812
Q23.7344 3.42188 29.3906 3.42188
Q33.7344 3.42188 35.875 6.375
Q38.0312 9.32812 38.5156 13.1562
Q39.0156 17 39.0156 22.125
L39.0156 22.4062
Q39.0156 30.125 37.5469 35.5625
Q36.0781 41.0156 30.5156 41.0156
Q27.4375 41.0156 24.75 39.5469
Q22.0781 38.0938 20.125 35.5
z
" id="Cmb10-62"/>
      <path id="Cmb10-20"/>
      <path d="
M3.42188 0
L3.42188 5.07812
Q8.10938 5.07812 10.4062 5.32812
Q12.7969 5.32812 12.7969 6
L12.7969 63.4844
L3.42188 63.4844
L3.42188 68.6094
L26.3125 68.6094
Q27.2031 68.3594 27.4844 68.0156
L59.7188 23.2969
L59.7188 62.5938
Q59.7188 62.9375 58.7812 63.1094
Q57.8594 63.2812 57.3281 63.2812
Q54.9844 63.4844 50.2969 63.4844
L50.2969 68.6094
L74.8125 68.6094
L74.8125 63.4844
Q70.125 63.4844 67.8281 63.2812
Q67.2812 63.2812 66.3281 63.1094
Q65.375 62.9375 65.375 62.5938
L65.375 1.60938
Q65.0938 0.296875 63.8125 0
L61.2812 0
Q60.4062 0.25 60.2031 0.59375
L18.5 58.2969
L18.5 6
Q18.5 5.32812 20.9062 5.32812
Q23.1875 5.07812 27.875 5.07812
L27.875 0
z
" id="Cmb10-4e"/>
      <path d="
M2.20312 0
L2.20312 5.07812
L9.07812 5.07812
L9.07812 36.2812
Q9.07812 39.1094 2.20312 39.1094
L2.20312 44.1875
L19.8281 45.0156
L19.8281 35.2969
Q22.0781 39.7031 26.0312 42.3594
Q29.9844 45.0156 34.8125 45.0156
Q45.9062 45.0156 48 36.2812
Q49.5156 38.8125 51.75 40.8125
Q54 42.8281 56.7344 43.9219
Q59.4688 45.0156 62.5 45.0156
Q69.6719 45.0156 72.9844 41.5156
Q76.3125 38.0312 76.3125 30.7188
L76.3125 5.07812
L83.2031 5.07812
L83.2031 0
L58.4062 0
L58.4062 5.07812
L64.5 5.07812
L64.5 30.4219
L64.5 30.7188
Q64.5 41.0156 61.2812 41.0156
Q57.5156 41.0156 54.6094 38.8438
Q51.7031 36.6719 50.1406 33.2031
Q48.5781 29.7344 48.5781 26.125
L48.5781 5.07812
L55.5156 5.07812
L55.5156 0
L30.7188 0
L30.7188 5.07812
L36.8125 5.07812
L36.8125 30.4219
L36.8125 30.7188
Q36.8125 41.0156 33.5938 41.0156
Q30.7656 41.0156 28.3906 39.7656
Q26.0312 38.5312 24.3438 36.3594
Q22.6562 34.1875 21.7812 31.5625
Q20.9062 28.9531 20.9062 26.125
L20.9062 5.07812
L27.7812 5.07812
L27.7812 0
z
" id="Cmb10-6d"/>
      <path d="
M25 -0.59375
Q18.3125 -0.59375 13.2969 2.1875
Q8.29688 4.98438 5.53125 10.1094
Q2.78125 15.2344 2.78125 21.7812
Q2.78125 26.7656 4.26562 31.1094
Q5.76562 35.4531 8.64062 38.625
Q11.5312 41.7969 15.7188 43.5469
Q19.9219 45.3125 25 45.3125
Q30.125 45.3125 34.2969 43.5469
Q38.4844 41.7969 41.3125 38.625
Q44.1406 35.4531 45.625 31.2031
Q47.125 26.9531 47.125 21.7812
Q47.125 15.2344 44.3906 10.1094
Q41.6562 4.98438 36.625 2.1875
Q31.5938 -0.59375 25 -0.59375
M25 3.8125
Q29.0469 3.8125 31.0312 6.89062
Q33.0156 9.96875 33.4531 13.9219
Q33.8906 17.875 33.8906 23.0938
Q33.8906 26.8594 33.6875 29.7031
Q33.5 32.5625 32.6875 35.2031
Q31.8906 37.8438 30.0312 39.5781
Q28.1719 41.3125 25 41.3125
Q20.9062 41.3125 18.8906 38.4219
Q16.8906 35.5469 16.4531 31.8594
Q16.0156 28.1719 16.0156 23.0938
Q16.0156 17.875 16.4531 13.9375
Q16.8906 10.0156 18.8906 6.90625
Q20.9062 3.8125 25 3.8125" id="Cmb10-6f"/>
      <path d="
M2.48438 0
L2.48438 5.07812
L9.42188 5.07812
L9.42188 39.3125
L3.8125 39.3125
L3.8125 44.3906
L9.42188 44.3906
L9.42188 55.0781
Q9.42188 60.2031 12.5156 63.5938
Q15.625 67 20.375 68.5
Q25.1406 70.0156 30.1719 70.0156
Q34.1875 70.0156 37.1875 67.4688
Q40.1875 64.9375 40.1875 61.0781
Q40.1875 58.4062 38.3281 56.5469
Q36.4688 54.6875 33.8906 54.6875
Q31.2969 54.6875 29.3906 56.5938
Q27.4844 58.5 27.4844 61.0781
Q27.4844 64.1562 29.6875 66.0156
L29.2031 66.0156
Q24.7031 66.0156 22.3594 62.7188
Q20.0156 59.4219 20.0156 54.7812
L20.0156 44.3906
L29.6875 44.3906
L29.6875 39.3125
L20.6094 39.3125
L20.6094 5.07812
L29.2969 5.07812
L29.2969 0
z
" id="Cmb10-66"/>
      <path d="
M2.39062 0
L2.39062 5.07812
L9.28125 5.07812
L9.28125 60.6875
Q9.28125 62.5469 7.32812 63.0156
Q5.375 63.4844 2.39062 63.4844
L2.39062 68.6094
L20.5156 69.3906
L20.5156 5.07812
L27.3906 5.07812
L27.3906 0
z
" id="Cmb10-6c"/>
     </defs>
     <g transform="translate(210.20953125 398.3775)scale(0.22 -0.22)">
      <use xlink:href="#Cmb10-4e"/>
      <use x="78.3203125" xlink:href="#Cmb10-75"/>
      <use x="133.837890625" xlink:href="#Cmb10-6d"/>
      <use x="217.138671875" xlink:href="#Cmb10-62"/>
      <use x="272.65625" xlink:href="#Cmb10-65"/>
      <use x="319.23828125" xlink:href="#Cmb10-72"/>
      <use x="361.9140625" xlink:href="#Cmb10-20"/>
      <use x="395.21484375" xlink:href="#Cmb10-6f"/>
      <use x="445.21484375" xlink:href="#Cmb10-66"/>
      <use x="475.732421875" xlink:href="#Cmb10-20"/>
      <use x="509.033203125" xlink:href="#Cmb10-72"/>
      <use x="551.708984375" xlink:href="#Cmb10-75"/>
      <use x="607.2265625" xlink:href="#Cmb10-6c"/>
      <use x="634.912109375" xlink:href="#Cmb10-65"/>
      <use x="681.494140625" xlink:href="#Cmb10-73"/>
     </g>
    </g>
   </g>
   <g id="matplotlib.axis_2">
    <g id="ytick_1">
     <g id="line2d_10">
      <defs>
       <path d="
M0 0
L4 0" id="mc8fcea1516" style="stroke:#000000;stroke-linecap:butt;stroke-width:0.5;"/>
      </defs>
      <g>
       <use style="stroke:#000000;stroke-linecap:butt;stroke-width:0.5;" x="65.929375" xlink:href="#mc8fcea1516" y="359.32"/>
      </g>
     </g>
     <g id="line2d_11">
      <defs>
       <path d="
M0 0
L-4 0" id="m0d5b0a6425" style="stroke:#000000;stroke-linecap:butt;stroke-width:0.5;"/>
      </defs>
      <g>
       <use style="stroke:#000000;stroke-linecap:butt;stroke-width:0.5;" x="512.329375" xlink:href="#m0d5b0a6425" y="359.32"/>
      </g>
     </g>
     <g id="text_6">
      <!-- $\mathdefault{10^{0}}$ -->
      <g transform="translate(28.269375 369.44)scale(0.22 -0.22)">
       <use transform="translate(0.0 2.4734375)" xlink:href="#Cmb10-31"/>
       <use transform="translate(50.0 2.4734375)" xlink:href="#Cmb10-30"/>
       <use transform="translate(100.0 46.1609375)scale(0.7)" xlink:href="#Cmb10-30"/>
      </g>
     </g>
    </g>
    <g id="ytick_2">
     <g id="line2d_12">
      <g>
       <use style="stroke:#000000;stroke-linecap:butt;stroke-width:0.5;" x="65.929375" xlink:href="#mc8fcea1516" y="290.2"/>
      </g>
     </g>
     <g id="line2d_13">
      <g>
       <use style="stroke:#000000;stroke-linecap:butt;stroke-width:0.5;" x="512.329375" xlink:href="#m0d5b0a6425" y="290.2"/>
      </g>
     </g>
     <g id="text_7">
      <!-- $\mathdefault{10^{1}}$ -->
      <g transform="translate(28.269375 300.32)scale(0.22 -0.22)">
       <use transform="translate(0.0 2.4734375)" xlink:href="#Cmb10-31"/>
       <use transform="translate(50.0 2.4734375)" xlink:href="#Cmb10-30"/>
       <use transform="translate(100.0 46.1609375)scale(0.7)" xlink:href="#Cmb10-31"/>
      </g>
     </g>
    </g>
    <g id="ytick_3">
     <g id="line2d_14">
      <g>
       <use style="stroke:#000000;stroke-linecap:butt;stroke-width:0.5;" x="65.929375" xlink:href="#mc8fcea1516" y="221.08"/>
      </g>
     </g>
     <g id="line2d_15">
      <g>
       <use style="stroke:#000000;stroke-linecap:butt;stroke-width:0.5;" x="512.329375" xlink:href="#m0d5b0a6425" y="221.08"/>
      </g>
     </g>
     <g id="text_8">
      <!-- $\mathdefault{10^{2}}$ -->
      <g transform="translate(28.269375 231.2)scale(0.22 -0.22)">
       <use transform="translate(0.0 2.4734375)" xlink:href="#Cmb10-31"/>
       <use transform="translate(50.0 2.4734375)" xlink:href="#Cmb10-30"/>
       <use transform="translate(100.0 46.1609375)scale(0.7)" xlink:href="#Cmb10-32"/>
      </g>
     </g>
    </g>
    <g id="ytick_4">
     <g id="line2d_16">
      <g>
       <use style="stroke:#000000;stroke-linecap:butt;stroke-width:0.5;" x="65.929375" xlink:href="#mc8fcea1516" y="151.96"/>
      </g>
     </g>
     <g id="line2d_17">
      <g>
       <use style="stroke:#000000;stroke-linecap:butt;stroke-width:0.5;" x="512.329375" xlink:href="#m0d5b0a6425" y="151.96"/>
      </g>
     </g>
     <g id="text_9">
      <!-- $\mathdefault{10^{3}}$ -->
      <defs>
       <path d="
M13.8125 6.59375
Q17.6719 3.60938 23.0938 3.60938
Q27.6406 3.60938 28.8125 7.8125
Q29.9844 12.0156 29.9844 18.1094
L29.9844 18.4062
Q29.9844 24.4688 28.7656 28.6406
Q27.5469 32.8125 22.9062 32.8125
L18.0156 32.8125
Q16.9375 33.0625 16.7031 34.0781
L16.7031 35.5938
Q17 36.5781 18.0156 36.8125
L22.0156 37.1094
Q25.9844 37.1094 27.4375 41.7969
Q28.9062 46.4844 28.9062 51.7031
Q28.9062 56.0625 27.8281 58.625
Q26.7656 61.1875 23.0938 61.1875
Q18.2656 61.1875 14.9844 57.9062
Q17.8281 57.5156 19.5 55.5312
Q21.1875 53.5625 21.1875 50.7812
Q21.1875 47.7969 19.1406 45.75
Q17.0938 43.7031 14.1094 43.7031
Q11.0312 43.7031 8.95312 45.7188
Q6.89062 47.75 6.89062 50.7812
Q6.89062 57.0781 11.75 61.2812
Q16.6094 65.4844 23.0938 65.4844
Q26.6562 65.4844 30.125 64.75
Q33.5938 64.0156 36.5156 62.4062
Q39.4531 60.7969 41.2344 58.125
Q43.0156 55.4688 43.0156 51.6094
Q43.0156 47.7969 41.2969 44.5
Q39.5938 41.2188 36.7188 38.7969
Q33.8438 36.375 30.1719 34.9062
Q34.5781 33.9844 38.0938 31.7344
Q41.6094 29.5 43.6562 26.0781
Q45.7031 22.6562 45.7031 18.2188
Q45.7031 11.9688 42.5938 7.59375
Q39.5 3.21875 34.3438 1.04688
Q29.2031 -1.125 23.0938 -1.125
Q19.7344 -1.125 16.4375 -0.140625
Q13.1406 0.828125 10.2969 2.85938
Q7.46875 4.89062 5.82812 7.84375
Q4.20312 10.7969 4.20312 14.3125
Q4.20312 17.5781 6.46875 19.8438
Q8.73438 22.125 12.1094 22.125
Q14.2656 22.125 16.0625 21.0938
Q17.875 20.0625 18.8906 18.25
Q19.9219 16.4531 19.9219 14.3125
Q19.9219 11.4219 18.2656 9.375
Q16.6094 7.32812 13.8125 6.59375" id="Cmb10-33"/>
      </defs>
      <g transform="translate(28.269375 162.08)scale(0.22 -0.22)">
       <use transform="translate(0.0 2.4734375)" xlink:href="#Cmb10-31"/>
       <use transform="translate(50.0 2.4734375)" xlink:href="#Cmb10-30"/>
       <use transform="translate(100.0 46.1609375)scale(0.7)" xlink:href="#Cmb10-33"/>
      </g>
     </g>
    </g>
    <g id="ytick_5">
     <g id="line2d_18">
      <g>
       <use style="stroke:#000000;stroke-linecap:butt;stroke-width:0.5;" x="65.929375" xlink:href="#mc8fcea1516" y="82.84"/>
      </g>
     </g>
     <g id="line2d_19">
      <g>
       <use style="stroke:#000000;stroke-linecap:butt;stroke-width:0.5;" x="512.329375" xlink:href="#m0d5b0a6425" y="82.84"/>
      </g>
     </g>
     <g id="text_10">
      <!-- $\mathdefault{10^{4}}$ -->
      <defs>
       <path d="
M17.0938 0
L17.0938 5.07812
L26.8125 5.07812
L26.8125 15.4844
L2.78125 15.4844
L2.78125 20.6094
L33.5938 64.3125
Q34.1875 65.1875 35.4062 65.1875
L37.8906 65.1875
Q38.7188 65.1875 39.2031 64.6875
Q39.7031 64.2031 39.7031 63.375
L39.7031 20.6094
L47.125 20.6094
L47.125 15.4844
L39.7031 15.4844
L39.7031 5.07812
L47.125 5.07812
L47.125 0
z

M8.20312 20.6094
L27.875 20.6094
L27.875 48.4844
z
" id="Cmb10-34"/>
      </defs>
      <g transform="translate(28.269375 92.96)scale(0.22 -0.22)">
       <use transform="translate(0.0 2.68125)" xlink:href="#Cmb10-31"/>
       <use transform="translate(50.0 2.68125)" xlink:href="#Cmb10-30"/>
       <use transform="translate(100.0 46.36875)scale(0.7)" xlink:href="#Cmb10-34"/>
      </g>
     </g>
    </g>
    <g id="ytick_6">
     <g id="line2d_20">
      <g>
       <use style="stroke:#000000;stroke-linecap:butt;stroke-width:0.5;" x="65.929375" xlink:href="#mc8fcea1516" y="13.72"/>
      </g>
     </g>
     <g id="line2d_21">
      <g>
       <use style="stroke:#000000;stroke-linecap:butt;stroke-width:0.5;" x="512.329375" xlink:href="#m0d5b0a6425" y="13.72"/>
      </g>
     </g>
     <g id="text_11">
      <!-- $\mathdefault{10^{5}}$ -->
      <g transform="translate(28.269375 23.84)scale(0.22 -0.22)">
       <use transform="translate(0.0 2.4734375)" xlink:href="#Cmb10-31"/>
       <use transform="translate(50.0 2.4734375)" xlink:href="#Cmb10-30"/>
       <use transform="translate(100.0 46.1609375)scale(0.7)" xlink:href="#Cmb10-35"/>
      </g>
     </g>
    </g>
    <g id="ytick_7">
     <g id="line2d_22">
      <defs>
       <path d="
M0 0
L2 0" id="m57a2c8792a" style="stroke:#000000;stroke-linecap:butt;stroke-width:0.5;"/>
      </defs>
      <g>
       <use style="stroke:#000000;stroke-linecap:butt;stroke-width:0.5;" x="65.929375" xlink:href="#m57a2c8792a" y="338.5128067"/>
      </g>
     </g>
     <g id="line2d_23">
      <defs>
       <path d="
M0 0
L-2 0" id="m46a939d668" style="stroke:#000000;stroke-linecap:butt;stroke-width:0.5;"/>
      </defs>
      <g>
       <use style="stroke:#000000;stroke-linecap:butt;stroke-width:0.5;" x="512.329375" xlink:href="#m46a939d668" y="338.5128067"/>
      </g>
     </g>
    </g>
    <g id="ytick_8">
     <g id="line2d_24">
      <g>
       <use style="stroke:#000000;stroke-linecap:butt;stroke-width:0.5;" x="65.929375" xlink:href="#m57a2c8792a" y="326.341378874"/>
      </g>
     </g>
     <g id="line2d_25">
      <g>
       <use style="stroke:#000000;stroke-linecap:butt;stroke-width:0.5;" x="512.329375" xlink:href="#m46a939d668" y="326.341378874"/>
      </g>
     </g>
    </g>
    <g id="ytick_9">
     <g id="line2d_26">
      <g>
       <use style="stroke:#000000;stroke-linecap:butt;stroke-width:0.5;" x="65.929375" xlink:href="#m57a2c8792a" y="317.705613399"/>
      </g>
     </g>
     <g id="line2d_27">
      <g>
       <use style="stroke:#000000;stroke-linecap:butt;stroke-width:0.5;" x="512.329375" xlink:href="#m46a939d668" y="317.705613399"/>
      </g>
     </g>
    </g>
    <g id="ytick_10">
     <g id="line2d_28">
      <g>
       <use style="stroke:#000000;stroke-linecap:butt;stroke-width:0.5;" x="65.929375" xlink:href="#m57a2c8792a" y="311.0071933"/>
      </g>
     </g>
     <g id="line2d_29">
      <g>
       <use style="stroke:#000000;stroke-linecap:butt;stroke-width:0.5;" x="512.329375" xlink:href="#m46a939d668" y="311.0071933"/>
      </g>
     </g>
    </g>
    <g id="ytick_11">
     <g id="line2d_30">
      <g>
       <use style="stroke:#000000;stroke-linecap:butt;stroke-width:0.5;" x="65.929375" xlink:href="#m57a2c8792a" y="305.534185573"/>
      </g>
     </g>
     <g id="line2d_31">
      <g>
       <use style="stroke:#000000;stroke-linecap:butt;stroke-width:0.5;" x="512.329375" xlink:href="#m46a939d668" y="305.534185573"/>
      </g>
     </g>
    </g>
    <g id="ytick_12">
     <g id="line2d_32">
      <g>
       <use style="stroke:#000000;stroke-linecap:butt;stroke-width:0.5;" x="65.929375" xlink:href="#m57a2c8792a" y="300.906823474"/>
      </g>
     </g>
     <g id="line2d_33">
      <g>
       <use style="stroke:#000000;stroke-linecap:butt;stroke-width:0.5;" x="512.329375" xlink:href="#m46a939d668" y="300.906823474"/>
      </g>
     </g>
    </g>
    <g id="ytick_13">
     <g id="line2d_34">
      <g>
       <use style="stroke:#000000;stroke-linecap:butt;stroke-width:0.5;" x="65.929375" xlink:href="#m57a2c8792a" y="296.898420099"/>
      </g>
     </g>
     <g id="line2d_35">
      <g>
       <use style="stroke:#000000;stroke-linecap:butt;stroke-width:0.5;" x="512.329375" xlink:href="#m46a939d668" y="296.898420099"/>
      </g>
     </g>
    </g>
    <g id="ytick_14">
     <g id="line2d_36">
      <g>
       <use style="stroke:#000000;stroke-linecap:butt;stroke-width:0.5;" x="65.929375" xlink:href="#m57a2c8792a" y="293.362757748"/>
      </g>
     </g>
     <g id="line2d_37">
      <g>
       <use style="stroke:#000000;stroke-linecap:butt;stroke-width:0.5;" x="512.329375" xlink:href="#m46a939d668" y="293.362757748"/>
      </g>
     </g>
    </g>
    <g id="ytick_15">
     <g id="line2d_38">
      <g>
       <use style="stroke:#000000;stroke-linecap:butt;stroke-width:0.5;" x="65.929375" xlink:href="#m57a2c8792a" y="269.3928067"/>
      </g>
     </g>
     <g id="line2d_39">
      <g>
       <use style="stroke:#000000;stroke-linecap:butt;stroke-width:0.5;" x="512.329375" xlink:href="#m46a939d668" y="269.3928067"/>
      </g>
     </g>
    </g>
    <g id="ytick_16">
     <g id="line2d_40">
      <g>
       <use style="stroke:#000000;stroke-linecap:butt;stroke-width:0.5;" x="65.929375" xlink:href="#m57a2c8792a" y="257.221378874"/>
      </g>
     </g>
     <g id="line2d_41">
      <g>
       <use style="stroke:#000000;stroke-linecap:butt;stroke-width:0.5;" x="512.329375" xlink:href="#m46a939d668" y="257.221378874"/>
      </g>
     </g>
    </g>
    <g id="ytick_17">
     <g id="line2d_42">
      <g>
       <use style="stroke:#000000;stroke-linecap:butt;stroke-width:0.5;" x="65.929375" xlink:href="#m57a2c8792a" y="248.585613399"/>
      </g>
     </g>
     <g id="line2d_43">
      <g>
       <use style="stroke:#000000;stroke-linecap:butt;stroke-width:0.5;" x="512.329375" xlink:href="#m46a939d668" y="248.585613399"/>
      </g>
     </g>
    </g>
    <g id="ytick_18">
     <g id="line2d_44">
      <g>
       <use style="stroke:#000000;stroke-linecap:butt;stroke-width:0.5;" x="65.929375" xlink:href="#m57a2c8792a" y="241.8871933"/>
      </g>
     </g>
     <g id="line2d_45">
      <g>
       <use style="stroke:#000000;stroke-linecap:butt;stroke-width:0.5;" x="512.329375" xlink:href="#m46a939d668" y="241.8871933"/>
      </g>
     </g>
    </g>
    <g id="ytick_19">
     <g id="line2d_46">
      <g>
       <use style="stroke:#000000;stroke-linecap:butt;stroke-width:0.5;" x="65.929375" xlink:href="#m57a2c8792a" y="236.414185573"/>
      </g>
     </g>
     <g id="line2d_47">
      <g>
       <use style="stroke:#000000;stroke-linecap:butt;stroke-width:0.5;" x="512.329375" xlink:href="#m46a939d668" y="236.414185573"/>
      </g>
     </g>
    </g>
    <g id="ytick_20">
     <g id="line2d_48">
      <g>
       <use style="stroke:#000000;stroke-linecap:butt;stroke-width:0.5;" x="65.929375" xlink:href="#m57a2c8792a" y="231.786823474"/>
      </g>
     </g>
     <g id="line2d_49">
      <g>
       <use style="stroke:#000000;stroke-linecap:butt;stroke-width:0.5;" x="512.329375" xlink:href="#m46a939d668" y="231.786823474"/>
      </g>
     </g>
    </g>
    <g id="ytick_21">
     <g id="line2d_50">
      <g>
       <use style="stroke:#000000;stroke-linecap:butt;stroke-width:0.5;" x="65.929375" xlink:href="#m57a2c8792a" y="227.778420099"/>
      </g>
     </g>
     <g id="line2d_51">
      <g>
       <use style="stroke:#000000;stroke-linecap:butt;stroke-width:0.5;" x="512.329375" xlink:href="#m46a939d668" y="227.778420099"/>
      </g>
     </g>
    </g>
    <g id="ytick_22">
     <g id="line2d_52">
      <g>
       <use style="stroke:#000000;stroke-linecap:butt;stroke-width:0.5;" x="65.929375" xlink:href="#m57a2c8792a" y="224.242757748"/>
      </g>
     </g>
     <g id="line2d_53">
      <g>
       <use style="stroke:#000000;stroke-linecap:butt;stroke-width:0.5;" x="512.329375" xlink:href="#m46a939d668" y="224.242757748"/>
      </g>
     </g>
    </g>
    <g id="ytick_23">
     <g id="line2d_54">
      <g>
       <use style="stroke:#000000;stroke-linecap:butt;stroke-width:0.5;" x="65.929375" xlink:href="#m57a2c8792a" y="200.2728067"/>
      </g>
     </g>
     <g id="line2d_55">
      <g>
       <use style="stroke:#000000;stroke-linecap:butt;stroke-width:0.5;" x="512.329375" xlink:href="#m46a939d668" y="200.2728067"/>
      </g>
     </g>
    </g>
    <g id="ytick_24">
     <g id="line2d_56">
      <g>
       <use style="stroke:#000000;stroke-linecap:butt;stroke-width:0.5;" x="65.929375" xlink:href="#m57a2c8792a" y="188.101378874"/>
      </g>
     </g>
     <g id="line2d_57">
      <g>
       <use style="stroke:#000000;stroke-linecap:butt;stroke-width:0.5;" x="512.329375" xlink:href="#m46a939d668" y="188.101378874"/>
      </g>
     </g>
    </g>
    <g id="ytick_25">
     <g id="line2d_58">
      <g>
       <use style="stroke:#000000;stroke-linecap:butt;stroke-width:0.5;" x="65.929375" xlink:href="#m57a2c8792a" y="179.465613399"/>
      </g>
     </g>
     <g id="line2d_59">
      <g>
       <use style="stroke:#000000;stroke-linecap:butt;stroke-width:0.5;" x="512.329375" xlink:href="#m46a939d668" y="179.465613399"/>
      </g>
     </g>
    </g>
    <g id="ytick_26">
     <g id="line2d_60">
      <g>
       <use style="stroke:#000000;stroke-linecap:butt;stroke-width:0.5;" x="65.929375" xlink:href="#m57a2c8792a" y="172.7671933"/>
      </g>
     </g>
     <g id="line2d_61">
      <g>
       <use style="stroke:#000000;stroke-linecap:butt;stroke-width:0.5;" x="512.329375" xlink:href="#m46a939d668" y="172.7671933"/>
      </g>
     </g>
    </g>
    <g id="ytick_27">
     <g id="line2d_62">
      <g>
       <use style="stroke:#000000;stroke-linecap:butt;stroke-width:0.5;" x="65.929375" xlink:href="#m57a2c8792a" y="167.294185573"/>
      </g>
     </g>
     <g id="line2d_63">
      <g>
       <use style="stroke:#000000;stroke-linecap:butt;stroke-width:0.5;" x="512.329375" xlink:href="#m46a939d668" y="167.294185573"/>
      </g>
     </g>
    </g>
    <g id="ytick_28">
     <g id="line2d_64">
      <g>
       <use style="stroke:#000000;stroke-linecap:butt;stroke-width:0.5;" x="65.929375" xlink:href="#m57a2c8792a" y="162.666823474"/>
      </g>
     </g>
     <g id="line2d_65">
      <g>
       <use style="stroke:#000000;stroke-linecap:butt;stroke-width:0.5;" x="512.329375" xlink:href="#m46a939d668" y="162.666823474"/>
      </g>
     </g>
    </g>
    <g id="ytick_29">
     <g id="line2d_66">
      <g>
       <use style="stroke:#000000;stroke-linecap:butt;stroke-width:0.5;" x="65.929375" xlink:href="#m57a2c8792a" y="158.658420099"/>
      </g>
     </g>
     <g id="line2d_67">
      <g>
       <use style="stroke:#000000;stroke-linecap:butt;stroke-width:0.5;" x="512.329375" xlink:href="#m46a939d668" y="158.658420099"/>
      </g>
     </g>
    </g>
    <g id="ytick_30">
     <g id="line2d_68">
      <g>
       <use style="stroke:#000000;stroke-linecap:butt;stroke-width:0.5;" x="65.929375" xlink:href="#m57a2c8792a" y="155.122757748"/>
      </g>
     </g>
     <g id="line2d_69">
      <g>
       <use style="stroke:#000000;stroke-linecap:butt;stroke-width:0.5;" x="512.329375" xlink:href="#m46a939d668" y="155.122757748"/>
      </g>
     </g>
    </g>
    <g id="ytick_31">
     <g id="line2d_70">
      <g>
       <use style="stroke:#000000;stroke-linecap:butt;stroke-width:0.5;" x="65.929375" xlink:href="#m57a2c8792a" y="131.1528067"/>
      </g>
     </g>
     <g id="line2d_71">
      <g>
       <use style="stroke:#000000;stroke-linecap:butt;stroke-width:0.5;" x="512.329375" xlink:href="#m46a939d668" y="131.1528067"/>
      </g>
     </g>
    </g>
    <g id="ytick_32">
     <g id="line2d_72">
      <g>
       <use style="stroke:#000000;stroke-linecap:butt;stroke-width:0.5;" x="65.929375" xlink:href="#m57a2c8792a" y="118.981378874"/>
      </g>
     </g>
     <g id="line2d_73">
      <g>
       <use style="stroke:#000000;stroke-linecap:butt;stroke-width:0.5;" x="512.329375" xlink:href="#m46a939d668" y="118.981378874"/>
      </g>
     </g>
    </g>
    <g id="ytick_33">
     <g id="line2d_74">
      <g>
       <use style="stroke:#000000;stroke-linecap:butt;stroke-width:0.5;" x="65.929375" xlink:href="#m57a2c8792a" y="110.345613399"/>
      </g>
     </g>
     <g id="line2d_75">
      <g>
       <use style="stroke:#000000;stroke-linecap:butt;stroke-width:0.5;" x="512.329375" xlink:href="#m46a939d668" y="110.345613399"/>
      </g>
     </g>
    </g>
    <g id="ytick_34">
     <g id="line2d_76">
      <g>
       <use style="stroke:#000000;stroke-linecap:butt;stroke-width:0.5;" x="65.929375" xlink:href="#m57a2c8792a" y="103.6471933"/>
      </g>
     </g>
     <g id="line2d_77">
      <g>
       <use style="stroke:#000000;stroke-linecap:butt;stroke-width:0.5;" x="512.329375" xlink:href="#m46a939d668" y="103.6471933"/>
      </g>
     </g>
    </g>
    <g id="ytick_35">
     <g id="line2d_78">
      <g>
       <use style="stroke:#000000;stroke-linecap:butt;stroke-width:0.5;" x="65.929375" xlink:href="#m57a2c8792a" y="98.1741855735"/>
      </g>
     </g>
     <g id="line2d_79">
      <g>
       <use style="stroke:#000000;stroke-linecap:butt;stroke-width:0.5;" x="512.329375" xlink:href="#m46a939d668" y="98.1741855735"/>
      </g>
     </g>
    </g>
    <g id="ytick_36">
     <g id="line2d_80">
      <g>
       <use style="stroke:#000000;stroke-linecap:butt;stroke-width:0.5;" x="65.929375" xlink:href="#m57a2c8792a" y="93.5468234742"/>
      </g>
     </g>
     <g id="line2d_81">
      <g>
       <use style="stroke:#000000;stroke-linecap:butt;stroke-width:0.5;" x="512.329375" xlink:href="#m46a939d668" y="93.5468234742"/>
      </g>
     </g>
    </g>
    <g id="ytick_37">
     <g id="line2d_82">
      <g>
       <use style="stroke:#000000;stroke-linecap:butt;stroke-width:0.5;" x="65.929375" xlink:href="#m57a2c8792a" y="89.5384200991"/>
      </g>
     </g>
     <g id="line2d_83">
      <g>
       <use style="stroke:#000000;stroke-linecap:butt;stroke-width:0.5;" x="512.329375" xlink:href="#m46a939d668" y="89.5384200991"/>
      </g>
     </g>
    </g>
    <g id="ytick_38">
     <g id="line2d_84">
      <g>
       <use style="stroke:#000000;stroke-linecap:butt;stroke-width:0.5;" x="65.929375" xlink:href="#m57a2c8792a" y="86.0027577476"/>
      </g>
     </g>
     <g id="line2d_85">
      <g>
       <use style="stroke:#000000;stroke-linecap:butt;stroke-width:0.5;" x="512.329375" xlink:href="#m46a939d668" y="86.0027577476"/>
      </g>
     </g>
    </g>
    <g id="ytick_39">
     <g id="line2d_86">
      <g>
       <use style="stroke:#000000;stroke-linecap:butt;stroke-width:0.5;" x="65.929375" xlink:href="#m57a2c8792a" y="62.0328066997"/>
      </g>
     </g>
     <g id="line2d_87">
      <g>
       <use style="stroke:#000000;stroke-linecap:butt;stroke-width:0.5;" x="512.329375" xlink:href="#m46a939d668" y="62.0328066997"/>
      </g>
     </g>
    </g>
    <g id="ytick_40">
     <g id="line2d_88">
      <g>
       <use style="stroke:#000000;stroke-linecap:butt;stroke-width:0.5;" x="65.929375" xlink:href="#m57a2c8792a" y="49.8613788738"/>
      </g>
     </g>
     <g id="line2d_89">
      <g>
       <use style="stroke:#000000;stroke-linecap:butt;stroke-width:0.5;" x="512.329375" xlink:href="#m46a939d668" y="49.8613788738"/>
      </g>
     </g>
    </g>
    <g id="ytick_41">
     <g id="line2d_90">
      <g>
       <use style="stroke:#000000;stroke-linecap:butt;stroke-width:0.5;" x="65.929375" xlink:href="#m57a2c8792a" y="41.2256133994"/>
      </g>
     </g>
     <g id="line2d_91">
      <g>
       <use style="stroke:#000000;stroke-linecap:butt;stroke-width:0.5;" x="512.329375" xlink:href="#m46a939d668" y="41.2256133994"/>
      </g>
     </g>
    </g>
    <g id="ytick_42">
     <g id="line2d_92">
      <g>
       <use style="stroke:#000000;stroke-linecap:butt;stroke-width:0.5;" x="65.929375" xlink:href="#m57a2c8792a" y="34.5271933003"/>
      </g>
     </g>
     <g id="line2d_93">
      <g>
       <use style="stroke:#000000;stroke-linecap:butt;stroke-width:0.5;" x="512.329375" xlink:href="#m46a939d668" y="34.5271933003"/>
      </g>
     </g>
    </g>
    <g id="ytick_43">
     <g id="line2d_94">
      <g>
       <use style="stroke:#000000;stroke-linecap:butt;stroke-width:0.5;" x="65.929375" xlink:href="#m57a2c8792a" y="29.0541855735"/>
      </g>
     </g>
     <g id="line2d_95">
      <g>
       <use style="stroke:#000000;stroke-linecap:butt;stroke-width:0.5;" x="512.329375" xlink:href="#m46a939d668" y="29.0541855735"/>
      </g>
     </g>
    </g>
    <g id="ytick_44">
     <g id="line2d_96">
      <g>
       <use style="stroke:#000000;stroke-linecap:butt;stroke-width:0.5;" x="65.929375" xlink:href="#m57a2c8792a" y="24.4268234742"/>
      </g>
     </g>
     <g id="line2d_97">
      <g>
       <use style="stroke:#000000;stroke-linecap:butt;stroke-width:0.5;" x="512.329375" xlink:href="#m46a939d668" y="24.4268234742"/>
      </g>
     </g>
    </g>
    <g id="ytick_45">
     <g id="line2d_98">
      <g>
       <use style="stroke:#000000;stroke-linecap:butt;stroke-width:0.5;" x="65.929375" xlink:href="#m57a2c8792a" y="20.4184200991"/>
      </g>
     </g>
     <g id="line2d_99">
      <g>
       <use style="stroke:#000000;stroke-linecap:butt;stroke-width:0.5;" x="512.329375" xlink:href="#m46a939d668" y="20.4184200991"/>
      </g>
     </g>
    </g>
    <g id="ytick_46">
     <g id="line2d_100">
      <g>
       <use style="stroke:#000000;stroke-linecap:butt;stroke-width:0.5;" x="65.929375" xlink:href="#m57a2c8792a" y="16.8827577476"/>
      </g>
     </g>
     <g id="line2d_101">
      <g>
       <use style="stroke:#000000;stroke-linecap:butt;stroke-width:0.5;" x="512.329375" xlink:href="#m46a939d668" y="16.8827577476"/>
      </g>
     </g>
    </g>
    <g id="text_12">
     <!-- Number of path conditions -->
     <defs>
      <path d="
M2.20312 0
L2.20312 5.07812
L9.07812 5.07812
L9.07812 60.6875
Q9.07812 62.5469 7.125 63.0156
Q5.17188 63.4844 2.20312 63.4844
L2.20312 68.6094
L20.3125 69.3906
L20.3125 36.1875
Q22.6562 40.2344 26.4688 42.625
Q30.2812 45.0156 34.8125 45.0156
Q39.7031 45.0156 42.7031 43.4688
Q45.7031 41.9375 47.1406 38.7812
Q48.5781 35.6406 48.5781 30.7188
L48.5781 5.07812
L55.5156 5.07812
L55.5156 0
L30.7188 0
L30.7188 5.07812
L36.8125 5.07812
L36.8125 30.4219
L36.8125 30.7188
Q36.8125 41.0156 33.5938 41.0156
Q30.7656 41.0156 28.3906 39.7656
Q26.0312 38.5312 24.3438 36.3594
Q22.6562 34.1875 21.7812 31.5625
Q20.9062 28.9531 20.9062 26.125
L20.9062 5.07812
L27.7812 5.07812
L27.7812 0
z
" id="Cmb10-68"/>
      <path d="
M2.39062 0
L2.39062 5.07812
L9.28125 5.07812
L9.28125 36.2812
Q9.28125 38.1875 7.46875 38.6406
Q5.67188 39.1094 2.6875 39.1094
L2.6875 44.1875
L20.5156 45.0156
L20.5156 5.07812
L26.8125 5.07812
L26.8125 0
z

M5.51562 61.5312
Q5.51562 64.8906 7.8125 67.1875
Q10.1094 69.4844 13.4844 69.4844
Q16.8906 69.4844 19.1875 67.1875
Q21.4844 64.8906 21.4844 61.5312
Q21.4844 58.2031 19.1875 55.8594
Q16.8906 53.5156 13.4844 53.5156
Q10.1094 53.5156 7.8125 55.8594
Q5.51562 58.2031 5.51562 61.5312" id="Cmb10-69"/>
      <path d="
M24.0312 -0.59375
Q17.5781 -0.59375 12.8906 2.40625
Q8.20312 5.42188 5.76562 10.6719
Q3.32812 15.9219 3.32812 22.2188
Q3.32812 28.7656 5.98438 33.9531
Q8.64062 39.1562 13.5625 42.0781
Q18.5 45.0156 25.0938 45.0156
Q31.2031 45.0156 35.9844 41.3125
L35.9844 60.6875
Q35.9844 62.5469 34.0312 63.0156
Q32.0781 63.4844 29.1094 63.4844
L29.1094 68.6094
L47.2188 69.3906
L47.2188 7.90625
Q47.2188 6.15625 49.1719 5.60938
Q51.125 5.07812 54.1094 5.07812
L54.1094 0
L35.4062 -0.59375
L35.4062 3.42188
Q30.5156 -0.59375 24.0312 -0.59375
M25 3.42188
Q28.2656 3.42188 30.9531 5.09375
Q33.6406 6.78125 35.4062 9.625
L35.4062 35.8906
Q33.7969 38.1406 31.2969 39.5781
Q28.8125 41.0156 26.125 41.0156
Q21.7812 41.0156 19.625 38.0625
Q17.4844 35.1094 16.9844 31.2969
Q16.5 27.4844 16.5 22.4062
L16.5 22.125
Q16.5 18.6562 16.6875 15.75
Q16.8906 12.8438 17.6719 10
Q18.4531 7.17188 20.2344 5.29688
Q22.0156 3.42188 25 3.42188" id="Cmb10-64"/>
      <path d="
M8.01562 11.7188
L8.01562 39.3125
L1.90625 39.3125
L1.90625 43.3125
Q6.5 43.3125 9.375 46.5
Q12.25 49.7031 13.4688 54.4062
Q14.7031 59.125 14.7031 63.4844
L19.8281 63.4844
L19.8281 44.3906
L31.6875 44.3906
L31.6875 39.3125
L19.8281 39.3125
L19.8281 12.0156
Q19.8281 8.64062 20.625 6.21875
Q21.4375 3.8125 24.0312 3.8125
Q26.375 3.8125 27.2969 6.39062
Q28.2188 8.98438 28.2188 12.0156
L28.2188 17.6719
L33.2969 17.6719
L33.2969 11.7188
Q33.2969 8.79688 32.0469 5.90625
Q30.8125 3.03125 28.4688 1.21875
Q26.125 -0.59375 23 -0.59375
Q16.3594 -0.59375 12.1875 2.35938
Q8.01562 5.32812 8.01562 11.7188" id="Cmb10-74"/>
      <path d="
M2.78125 11.1875
Q2.78125 16.8906 7.3125 20.375
Q11.8594 23.875 18.0781 25.2812
Q24.3125 26.7031 30.0781 26.7031
L30.0781 30.4219
Q30.0781 34.8125 28.1719 38.0625
Q26.2656 41.3125 22.125 41.3125
Q19.4375 41.3125 16.4062 40.8281
Q18.5 38.875 18.5 35.8906
Q18.5 33.1094 16.6875 31.25
Q14.8906 29.3906 12.1094 29.3906
Q9.32812 29.3906 7.46875 31.25
Q5.60938 33.1094 5.60938 35.8906
Q5.60938 39.7031 8.26562 41.7969
Q10.9375 43.8906 14.6406 44.5938
Q18.3594 45.3125 22.2188 45.3125
Q27.0469 45.3125 31.5312 43.8125
Q36.0312 42.3281 38.9531 39.0312
Q41.8906 35.75 41.8906 30.7188
L41.8906 7.07812
Q42.3281 5.07812 46.9219 5.07812
Q48.1875 4.78125 48.4844 3.51562
L48.4844 1.60938
Q48.1875 0.296875 46.9219 0
L39.9844 0
Q36.9688 0 34.375 1.5625
Q31.7812 3.125 31.7812 6
L31.7812 6.78125
Q30.0312 3.42188 26.7031 1.40625
Q23.3906 -0.59375 19.5781 -0.59375
Q13.2812 -0.59375 8.03125 2.39062
Q2.78125 5.375 2.78125 11.1875
M20.7969 3.42188
Q23.3906 3.42188 25.5156 4.76562
Q27.6406 6.10938 28.8594 8.32812
Q30.0781 10.5469 30.0781 13.0938
L30.0781 23.0938
Q26.5156 23.0938 23 21.7031
Q19.4844 20.3125 17.1875 17.5781
Q14.8906 14.8438 14.8906 11.1875
Q14.8906 8.34375 16.5312 5.875
Q18.1719 3.42188 20.7969 3.42188" id="Cmb10-61"/>
      <path d="
M24.9062 -0.59375
Q18.3125 -0.59375 13.4062 2.34375
Q8.5 5.28125 5.90625 10.4219
Q3.32812 15.5781 3.32812 22.2188
Q3.32812 27.1562 4.8125 31.375
Q6.29688 35.5938 9.04688 38.7188
Q11.8125 41.8438 15.8906 43.5781
Q19.9688 45.3125 24.9062 45.3125
Q30.7656 45.3125 35.5625 43.1562
Q40.375 41.0156 40.375 35.8906
Q40.375 33.1094 38.5625 31.25
Q36.7656 29.3906 33.9844 29.3906
Q31.2031 29.3906 29.3438 31.2969
Q27.4844 33.2031 27.4844 35.8906
Q27.4844 38.9219 29.3906 40.4844
Q27.5938 40.9219 25 40.9219
Q21.9688 40.9219 20.2031 39.0156
Q18.4531 37.1094 17.6875 34.2812
Q16.9375 31.4531 16.7188 28.5938
Q16.5 25.7344 16.5 22.3125
Q16.5 17.7188 17.1562 13.6875
Q17.8281 9.67188 20.1094 6.73438
Q22.4062 3.8125 26.8125 3.8125
Q30.4688 3.8125 33 6.21875
Q35.5469 8.64062 36.5312 12.3125
Q36.9219 12.9375 37.7031 13.0938
L40.2812 13.0938
Q41.5 12.75 41.5 11.7188
Q41.5 11.625 41.4062 11.1875
Q39.8906 5.67188 35.3281 2.53125
Q30.7656 -0.59375 24.9062 -0.59375" id="Cmb10-63"/>
      <path d="
M2.20312 0
L2.20312 5.07812
L9.07812 5.07812
L9.07812 36.2812
Q9.07812 39.1094 2.20312 39.1094
L2.20312 44.1875
L19.8281 45.0156
L19.8281 35.2969
Q22.0781 39.7031 26.0312 42.3594
Q29.9844 45.0156 34.8125 45.0156
Q39.7031 45.0156 42.7031 43.4688
Q45.7031 41.9375 47.1406 38.7812
Q48.5781 35.6406 48.5781 30.7188
L48.5781 5.07812
L55.5156 5.07812
L55.5156 0
L30.7188 0
L30.7188 5.07812
L36.8125 5.07812
L36.8125 30.4219
L36.8125 30.7188
Q36.8125 41.0156 33.5938 41.0156
Q30.7656 41.0156 28.3906 39.7656
Q26.0312 38.5312 24.3438 36.3594
Q22.6562 34.1875 21.7812 31.5625
Q20.9062 28.9531 20.9062 26.125
L20.9062 5.07812
L27.7812 5.07812
L27.7812 0
z
" id="Cmb10-6e"/>
      <path d="
M1.42188 -19.3906
L1.42188 -14.3125
L8.29688 -14.3125
L8.29688 37.4062
Q8.29688 39.1094 1.42188 39.1094
L1.42188 44.1875
L19.4844 45.0156
L19.4844 40.9219
Q25 45.0156 31.9844 45.0156
Q36.9688 45.0156 40.75 43.2031
Q44.5312 41.4062 47.0469 38.3281
Q49.5625 35.25 50.875 31.0469
Q52.2031 26.8594 52.2031 22.2188
Q52.2031 15.625 49.5312 10.4219
Q46.875 5.21875 41.8594 2.3125
Q36.8594 -0.59375 30.3281 -0.59375
Q24.4688 -0.59375 20.125 2.875
L20.125 -14.3125
L27 -14.3125
L27 -19.3906
z

M20.125 9.07812
Q23.7344 3.42188 29.3906 3.42188
Q34.6719 3.42188 36.8438 9.51562
Q39.0156 15.625 39.0156 22.2188
Q39.0156 28.5156 37.125 34.5469
Q35.25 40.5781 30.5156 40.5781
Q27.5469 40.5781 24.8125 39.1875
Q22.0781 37.7969 20.125 35.2969
z
" id="Cmb10-70"/>
     </defs>
     <g transform="translate(23.269375 312.3015625)rotate(-90.0)scale(0.22 -0.22)">
      <use xlink:href="#Cmb10-4e"/>
      <use x="78.3203125" xlink:href="#Cmb10-75"/>
      <use x="133.837890625" xlink:href="#Cmb10-6d"/>
      <use x="217.138671875" xlink:href="#Cmb10-62"/>
      <use x="272.65625" xlink:href="#Cmb10-65"/>
      <use x="319.23828125" xlink:href="#Cmb10-72"/>
      <use x="361.9140625" xlink:href="#Cmb10-20"/>
      <use x="395.21484375" xlink:href="#Cmb10-6f"/>
      <use x="445.21484375" xlink:href="#Cmb10-66"/>
      <use x="475.732421875" xlink:href="#Cmb10-20"/>
      <use x="509.033203125" xlink:href="#Cmb10-70"/>
      <use x="564.55078125" xlink:href="#Cmb10-61"/>
      <use x="613.134765625" xlink:href="#Cmb10-74"/>
      <use x="652.1484375" xlink:href="#Cmb10-68"/>
      <use x="707.666015625" xlink:href="#Cmb10-20"/>
      <use x="740.966796875" xlink:href="#Cmb10-63"/>
      <use x="785.3515625" xlink:href="#Cmb10-6f"/>
      <use x="835.3515625" xlink:href="#Cmb10-6e"/>
      <use x="890.869140625" xlink:href="#Cmb10-64"/>
      <use x="946.38671875" xlink:href="#Cmb10-69"/>
      <use x="974.072265625" xlink:href="#Cmb10-74"/>
      <use x="1013.0859375" xlink:href="#Cmb10-69"/>
      <use x="1040.77148438" xlink:href="#Cmb10-6f"/>
      <use x="1090.77148438" xlink:href="#Cmb10-6e"/>
      <use x="1146.2890625" xlink:href="#Cmb10-73"/>
     </g>
    </g>
   </g>
   <g id="patch_3">
    <path d="
M65.9294 13.72
L512.329 13.72" style="fill:none;stroke:#000000;"/>
   </g>
   <g id="patch_4">
    <path d="
M512.329 359.32
L512.329 13.72" style="fill:none;stroke:#000000;"/>
   </g>
   <g id="patch_5">
    <path d="
M65.9294 359.32
L512.329 359.32" style="fill:none;stroke:#000000;"/>
   </g>
   <g id="patch_6">
    <path d="
M65.9294 359.32
L65.9294 13.72" style="fill:none;stroke:#000000;"/>
   </g>
  </g>
 </g>
 <defs>
  <clipPath id="p00361e47c4">
   <rect height="345.6" width="446.4" x="65.929375" y="13.72"/>
  </clipPath>
 </defs>
</svg>
